<?xml version="1.0" standalone="no"?>
<!DOCTYPE svg PUBLIC "-//W3C//DTD SVG 1.1//EN" "http://www.w3.org/Graphics/SVG/1.1/DTD/svg11.dtd" >
<svg>
<metadata>
Created by FontForge 20090914 at Sat Feb 17 19:58:18 2018
 By www-data
Copyright (c) 2002 The Hoefler Type Foundry, Inc., dba Hoefler &#38; Frere-Jones. All Rights Reserved.
</metadata>
<defs>
<font id="GothamPro-BoldItalic" horiz-adv-x="500" >
  <font-face 
    font-family="Gotham Pro"
    font-weight="700"
    font-style="italic"
    font-stretch="normal"
    units-per-em="1000"
    panose-1="2 0 8 3 4 0 0 9 0 4"
    ascent="800"
    descent="-200"
    x-height="536"
    cap-height="700"
    bbox="-138 -200 1247 932"
    underline-thickness="20"
    underline-position="-113"
    slope="-15"
    unicode-range="U+0020-U+FB04"
  />
<missing-glyph 
d="M0 0v700h500v-700h-500zM81 49h340l-171 255zM50 95l170 254l-170 256v-510zM451 95v510l-172 -256zM250 395l171 255h-340z" />
    <glyph glyph-name="fi" unicode="fi" horiz-adv-x="713" 
d="M570 595l37 135h160l-37 -135h-160zM23 0l110 406h-64l35 130h63l7 29c30 114.667 102.333 172 217 172c41.333 0 76 -5 104 -15l-33 -126c-22 8.66699 -44 13 -66 13c-39.333 0 -64.333 -19.333 -75 -58l-4 -15h129l-35 -130h-126l-110 -406h-152zM414 0l144 536h152
l-144 -536h-152z" />
    <glyph glyph-name="fl" unicode="fl" horiz-adv-x="713" 
d="M414 0l196 730h152l-196 -730h-152zM23 0l110 406h-64l35 130h63l7 29c30 114.667 102.333 172 217 172c41.333 0 76 -5 104 -15l-33 -126c-22 8.66699 -44 13 -66 13c-39.333 0 -64.333 -19.333 -75 -58l-4 -15h129l-35 -130h-126l-110 -406h-152z" />
    <glyph glyph-name="ffi" unicode="ffi" horiz-adv-x="1124" 
d="M981 595l37 135h160l-37 -135h-160zM434 0l110 406h-64l35 130h63l7 29c28 114.667 100.333 172 217 172c41.333 0 76 -5 104 -15l-33 -126c-22 8.66699 -44 13 -66 13c-40 0 -65 -19.333 -75 -58l-4 -15h129l-35 -130h-126l-110 -406h-152zM23 0l110 406h-64l35 130h63
l7 29c30 114.667 102.333 172 217 172c41.333 0 76 -5 104 -15l-33 -126c-22 8.66699 -44 13 -66 13c-39.333 0 -64.333 -19.333 -75 -58l-4 -15h129l-35 -130h-126l-110 -406h-152zM825 0l144 536h152l-144 -536h-152z" />
    <glyph glyph-name="ffl" unicode="ffl" horiz-adv-x="1124" 
d="M434 0l110 406h-64l35 130h63l7 29c28 114.667 100.333 172 217 172c41.333 0 76 -5 104 -15l-33 -126c-22 8.66699 -44 13 -66 13c-40 0 -65 -19.333 -75 -58l-4 -15h129l-35 -130h-126l-110 -406h-152zM23 0l110 406h-64l35 130h63l7 29
c30 114.667 102.333 172 217 172c41.333 0 76 -5 104 -15l-33 -126c-22 8.66699 -44 13 -66 13c-39.333 0 -64.333 -19.333 -75 -58l-4 -15h129l-35 -130h-126l-110 -406h-152zM825 0l196 730h152l-196 -730h-152z" />
    <glyph glyph-name=".notdef" 
d="M0 0v700h500v-700h-500zM81 49h340l-171 255zM50 95l170 254l-170 256v-510zM451 95v510l-172 -256zM250 395l171 255h-340z" />
    <glyph glyph-name="space" unicode=" " horiz-adv-x="300" 
 />
    <glyph glyph-name="exclam" unicode="!" horiz-adv-x="325" 
d="M112 238l71 442l6 20h178l-6 -20l-165 -442h-84zM9 0l43 160h162l-43 -160h-162z" />
    <glyph glyph-name="quotedbl" unicode="&#x22;" horiz-adv-x="528" 
d="M341 381l84 319h170l-2 -5l-173 -314h-79zM99 381l84 319h170l-2 -5l-173 -314h-79z" />
    <glyph glyph-name="numbersign" unicode="#" horiz-adv-x="691" 
d="M40 0l52 150h-81l34 128h92l51 148h-93l34 128h104l51 146h132l-51 -146h145l51 146h132l-51 -146h82l-34 -128h-93l-51 -148h94l-34 -128h-105l-52 -150h-132l52 150h-145l-52 -150h-132zM269 278h145l51 148h-145z" />
    <glyph glyph-name="dollar" unicode="$" horiz-adv-x="636" 
d="M161 -98l33 108.001c-85.333 17.333 -151.666 57 -198.999 119l112 94c37.333 -42.667 80.666 -70.334 129.999 -83.001l47 155c-54.667 20.667 -96 44.334 -124 71.001s-42 64.667 -42 114c0 62.667 26.5 115 79.5 157s118.5 63 196.5 63h8l18 58h104l-21 -71
c58.667 -16 110 -46.333 154 -91l-104 -102c-31.333 29.333 -62 49.666 -92 60.999l-45 -149c53.333 -20 93.5 -44 120.5 -72s40.5 -66 40.5 -114c0 -64.667 -26.833 -117.5 -80.5 -158.5s-120.5 -61.5 -200.5 -61.5h-1l-30 -98h-104zM329 439.001l39 129
c-30.667 -2 -53.667 -9.66699 -69 -23s-23 -29.666 -23 -48.999c0 -12 3.83301 -22.333 11.5 -31s21.5 -17.334 41.5 -26.001zM330 132.001c59.333 5.33301 89 29.334 89 72.001c0 23.333 -16.333 42.666 -49 57.999z" />
    <glyph glyph-name="percent" unicode="%" horiz-adv-x="880" 
d="M238 346c-46 0 -83.167 14.167 -111.5 42.5s-42.5 65.5 -42.5 111.5c0 54 18.333 102.167 55 144.5s83 63.5 139 63.5c46 0 83.167 -14.167 111.5 -42.5s42.5 -65.5 42.5 -111.5c0 -54 -18.333 -102.167 -55 -144.5s-83 -63.5 -139 -63.5zM60 0l673 700h130l-673 -700
h-130zM645 -8c-46 0 -83.167 14.167 -111.5 42.5s-42.5 65.5 -42.5 111.5c0 54 18.333 102.167 55 144.5s83 63.5 139 63.5c46 0 83.167 -14.167 111.5 -42.5s42.5 -65.5 42.5 -111.5c0 -54 -18.333 -102.167 -55 -144.5s-83 -63.5 -139 -63.5zM244 433
c26 0 47.5 12.333 64.5 37s25.5 51.334 25.5 80.001c0 22 -5.5 39.333 -16.5 52s-26.167 19 -45.5 19c-26 0 -47.5 -12.333 -64.5 -37s-25.5 -51.334 -25.5 -80.001c0 -22 5.5 -39.333 16.5 -52s26.167 -19 45.5 -19zM651 79c26 0 47.5 12.333 64.5 37
s25.5 51.334 25.5 80.001c0 22 -5.5 39.333 -16.5 52s-26.167 19 -45.5 19c-26 0 -47.5 -12.333 -64.5 -37s-25.5 -51.334 -25.5 -80.001c0 -22 5.5 -39.333 16.5 -52s26.167 -19 45.5 -19z" />
    <glyph glyph-name="ampersand" unicode="&#x26;" horiz-adv-x="696" 
d="M515 -14l-55.999 77.0029c-70 -48.667 -141.333 -73 -214 -73c-66 0 -119.5 16.833 -160.5 50.5s-61.5 79.5 -61.5 137.5c0 45.333 16.167 87.5 48.5 126.5s82.166 69.5 149.499 91.5c-24.667 42.667 -37 83 -37 121c0 53.333 20.667 99.166 62 137.499s95 57.5 161 57.5
c57.333 0 103.833 -15.833 139.5 -47.5s53.5 -71.834 53.5 -120.501c0 -86.667 -63 -151.334 -189 -194.001l79 -106c28.667 30 57 67.667 85 113l93 -65c-34.667 -52.667 -71 -99.667 -109 -141l69 -93zM348.001 436.003c44 16 74.167 31.3311 90.5 45.998
s24.5 32.334 24.5 53.001c0 14.667 -5.5 27.834 -16.5 39.501s-26.5 17.5 -46.5 17.5c-24 0 -43.5 -7.66699 -58.5 -23s-22.5 -33.333 -22.5 -54c0 -24 9.66699 -50.333 29 -79zM262.001 116.001c39.333 0 82 14.332 128 42.999l-108 149
c-38 -14.667 -66.5 -32.667 -85.5 -54s-28.5 -43.666 -28.5 -66.999c0 -20.667 8.16699 -37.667 24.5 -51s39.5 -20 69.5 -20z" />
    <glyph glyph-name="quotesingle" unicode="'" horiz-adv-x="286" 
d="M99 381l84 319h170l-2 -5l-173 -314h-79z" />
    <glyph glyph-name="parenleft" unicode="(" horiz-adv-x="445" 
d="M241 -143c-122 98 -183.001 215.334 -183.001 352.001c0 109.333 34.5 208.166 103.5 296.499s166.167 157.5 291.5 207.5l56 -113c-95.333 -44 -168.666 -100.333 -219.999 -169s-77 -141 -77 -217c0 -87.333 41.333 -174 124 -260z" />
    <glyph glyph-name="parenright" unicode=")" horiz-adv-x="445" 
d="M2 -139l-55.999 112.999c95.333 44 168.666 100.333 219.999 169s77 141 77 217c0 87.333 -41.333 174 -124 260l95 97c122 -98 183 -215.333 183 -352c0 -109.333 -34.5 -208.166 -103.5 -296.499s-166.167 -157.5 -291.5 -207.5z" />
    <glyph glyph-name="asterisk" unicode="*" horiz-adv-x="430" 
d="M278 367l-79 21l46 112l-113 -46l-22 80l121 16l-96 75l59 59l74 -97l16 120l79 -21l-46 -112l113 46l22 -80l-121 -16l96 -75l-59 -59l-74 97z" />
    <glyph glyph-name="plus" unicode="+" horiz-adv-x="649" 
d="M210 103l48 180h-181l37 138h181l48 180h142l-48 -180h181l-37 -138h-181l-48 -180h-142z" />
    <glyph glyph-name="comma" unicode="," horiz-adv-x="319" 
d="M-51 -162l-9.99902 62.999c76 6.66699 119.333 39.667 130 99h-62l43 160h162l-36 -135c-17.333 -64.667 -44.333 -111.667 -81 -141s-85.334 -44.666 -146.001 -45.999z" />
    <glyph glyph-name="hyphen" unicode="-" horiz-adv-x="412" 
d="M44 237l39 146h308l-39 -146h-308z" />
    <glyph glyph-name="period" unicode="." horiz-adv-x="319" 
d="M7 0l43 160h162l-43 -160h-162z" />
    <glyph glyph-name="slash" unicode="/" horiz-adv-x="530" 
d="M-135 -128l681 926h143l-681 -926h-143z" />
    <glyph glyph-name="zero" unicode="0" horiz-adv-x="730" 
d="M335 -12c-82 0 -148 26.5 -198 79.5s-75 123.5 -75 211.5c0 52 8.66699 103.333 26 154s41.333 96.834 72 138.501s70.334 75.5 119.001 101.5s101.334 39 158.001 39c82 0 148 -26.5 198 -79.5s75 -123.5 75 -211.5c0 -52 -8.66699 -103.333 -26 -154
s-41.333 -96.834 -72 -138.501s-70.334 -75.5 -119.001 -101.5s-101.334 -39 -158.001 -39zM347 127c58.667 0 107.5 31.5 146.5 94.5s58.5 129.833 58.5 200.5c0 48.667 -11.333 86 -34 112s-53.667 39 -93 39c-58.667 0 -107.5 -31.5 -146.5 -94.5
s-58.5 -129.833 -58.5 -200.5c0 -48.667 11.333 -86 34 -112s53.667 -39 93 -39z" />
    <glyph glyph-name="one" unicode="1" horiz-adv-x="434" 
d="M95 0l145 542l-127 -29l-2 131l220 61h105l-189 -705h-152z" />
    <glyph glyph-name="two" unicode="2" horiz-adv-x="614" 
d="M-30 0l34 125.999l354 244c35.333 24.667 61.166 47 77.499 67s24.5 41 24.5 63c0 22.667 -7.83301 40.334 -23.5 53.001s-37.167 19 -64.5 19c-51.333 0 -107 -29 -167 -87l-94 98c74.667 84.667 164 127 268 127c72 0 129.833 -18 173.5 -54s65.5 -82.333 65.5 -139
c0 -44 -12.167 -83.667 -36.5 -119s-67.166 -74.333 -128.499 -117l-216 -148h294l-36 -133h-525z" />
    <glyph glyph-name="three" unicode="3" horiz-adv-x="604" 
d="M242 -12c-121.333 0 -207.67 44.333 -259.003 133l114 84c38.667 -52.667 89.334 -79 152.001 -79c36.667 0 67.834 9.83301 93.501 29.5s38.5 42.5 38.5 68.5c0 26.667 -12 47.167 -36 61.5s-57.667 21.5 -101 21.5h-43l-6 96l206 165h-265l36 132h473l-32 -116
l-226 -172c99.333 -24 149 -82 149 -174c0 -70.667 -28.167 -130 -84.5 -178s-126.166 -72 -209.499 -72z" />
    <glyph glyph-name="four" unicode="4" horiz-adv-x="659" 
d="M315 0l40 151h-324l-15 114l483 440h150l-115 -429h94l-34 -125h-94l-40 -151h-145zM211 276h178l60 224z" />
    <glyph glyph-name="five" unicode="5" horiz-adv-x="610" 
d="M250 -11c-50 0 -99.668 11.999 -149.001 35.999s-86 53.667 -110 89l108 91c47.333 -51.333 102 -77 164 -77c40.667 0 74.5 10.667 101.5 32s40.5 47 40.5 77c0 26.667 -11 48.334 -33 65.001s-54.333 25 -97 25c-28 0 -59.333 -7.33301 -94 -22l-78 63l109 332h424
l-37 -135h-285l-40 -119c24.667 5.33301 48.334 8 71.001 8c64.667 0 117.167 -18.167 157.5 -54.5s60.5 -84.833 60.5 -145.5c0 -72 -29 -134.167 -87 -186.5s-133.333 -78.5 -226 -78.5z" />
    <glyph glyph-name="six" unicode="6" horiz-adv-x="643" 
d="M313 -12c-78.667 0 -139.333 21.334 -182 64.001c-48 48 -72 113.667 -72 197c0 68 11.833 133.667 35.5 197s57.5 117 101.5 161c70 70 154.667 105 254 105c85.333 0 157.333 -27 216 -81l-89 -111c-40.667 36 -87.334 54 -140.001 54c-54 0 -99.333 -18.333 -136 -55
c-32.667 -32.667 -56.667 -73.667 -72 -123c16 16 39 29.833 69 41.5s60.667 17.5 92 17.5c60.667 0 111.334 -17.333 152.001 -52s61 -82.334 61 -143.001c0 -72 -28.333 -135.333 -85 -190s-125 -82 -205 -82zM313.001 118.001c38.667 0 70.833 12.332 96.5 36.999
s38.5 52.667 38.5 84c0 28 -9.66699 50.333 -29 67s-44.666 25 -75.999 25c-40.667 0 -73.834 -11.667 -99.501 -35s-38.5 -51.666 -38.5 -84.999c0 -24.667 8.66699 -45.667 26 -63c20 -20 47.333 -30 82 -30z" />
    <glyph glyph-name="seven" unicode="7" horiz-adv-x="609" 
d="M9 0l435 567h-322l36 133h504l-32 -116l-440 -584h-181z" />
    <glyph glyph-name="eight" unicode="8" horiz-adv-x="662" 
d="M300 -10c-74 0 -137.168 18.3311 -189.501 54.998s-78.5 84.334 -78.5 143.001c0 50.667 16.167 91.834 48.5 123.501s75.833 54.167 130.5 67.5c-27.333 14 -48.333 33 -63 57s-22 50 -22 78c0 50.667 23.333 96 70 136s111 60 193 60
c72.667 0 132.167 -17.667 178.5 -53s69.5 -80.333 69.5 -135c0 -44 -13.5 -81.333 -40.5 -112s-64.5 -51.667 -112.5 -63c32.667 -12.667 58.667 -31.667 78 -57s29 -56 29 -92c0 -56 -26.667 -104.667 -80 -146s-123.666 -62 -210.999 -62zM377.999 415.998
c32.667 0 59.834 8.33301 81.501 25s32.834 37.334 33.501 62.001c0.666992 23.333 -8.83301 42.666 -28.5 57.999s-47.167 23 -82.5 23c-31.333 0 -58 -8.16699 -80 -24.5s-33.333 -36.833 -34 -61.5c-0.666992 -23.333 9.16602 -42.833 29.499 -58.5
s47.166 -23.5 80.499 -23.5zM307.999 113.998c38 0 69.502 8.49902 94.502 25.499s37.833 39.167 38.5 66.5c0.666992 25.333 -10.833 46 -34.5 62s-54.5 24 -92.5 24s-69.333 -8.66699 -94 -26s-37.334 -39 -38.001 -65c-0.666992 -25.333 10.666 -46.166 33.999 -62.499
s54 -24.5 92 -24.5z" />
    <glyph glyph-name="nine" unicode="9" horiz-adv-x="643" 
d="M243 -12c-86.667 0 -163.335 29.665 -230.002 88.998l90 111c48.667 -41.333 98 -62 148 -62c53.333 0 99 19 137 57c30.667 30.667 53.334 68.334 68.001 113.001c-16 -16 -38.667 -29.667 -68 -41s-59.666 -17 -90.999 -17c-61.333 0 -112.166 17.333 -152.499 52
s-60.5 83.334 -60.5 146.001c0 76.667 28.167 141.834 84.5 195.501s124.833 80.5 205.5 80.5c35.333 0 69.666 -5.5 102.999 -16.5s60 -26.5 80 -46.5c48 -48 72 -118.667 72 -212c0 -64 -12.167 -126.333 -36.5 -187s-58.833 -113.334 -103.5 -158.001
c-69.333 -69.333 -151.333 -104 -246 -104zM345.999 361.998c40 0 72.667 12.001 98 36.001s38 53.333 38 88c0 27.333 -8.33301 49.333 -25 66c-20 20 -47.333 30 -82 30c-40 0 -72.667 -12.333 -98 -37s-38 -54.334 -38 -89.001c0 -30 9.83301 -53.167 29.5 -69.5
s45.5 -24.5 77.5 -24.5z" />
    <glyph glyph-name="colon" unicode=":" horiz-adv-x="319" 
d="M108 376l43 160h162l-43 -160h-162zM7 0l43 160h162l-43 -160h-162z" />
    <glyph glyph-name="semicolon" unicode=";" horiz-adv-x="319" 
d="M108 376l43 160h162l-43 -160h-162zM-51 -162l-9.99902 62.999c76 6.66699 119.333 39.667 130 99h-62l43 160h162l-36 -135c-17.333 -64.667 -44.333 -111.667 -81 -141s-85.334 -44.666 -146.001 -45.999z" />
    <glyph glyph-name="less" unicode="&#x3c;" horiz-adv-x="640" 
d="M499 71l-427 212l37 138l541 212l-41 -148l-375 -139l301 -139z" />
    <glyph glyph-name="equal" unicode="=" horiz-adv-x="640" 
d="M124 413l37 138h474l-37 -138h-474zM54 153l37 138h474l-37 -138h-474z" />
    <glyph glyph-name="greater" unicode="&#x3e;" horiz-adv-x="640" 
d="M32 71l41 148l375 139l-301 139l36 136l427 -212l-37 -138z" />
    <glyph glyph-name="question" unicode="?" horiz-adv-x="544" 
d="M177 238l20 162l6 5c133.333 9.33301 200 43.333 200 102c0 41.333 -27.667 62 -83 62c-49.333 0 -97 -19.667 -143 -59l-80 101c31.333 32 68.5 56.333 111.5 73s87.167 25 132.5 25c68 0 122.167 -17.833 162.5 -53.5s60.5 -78.5 60.5 -128.5
c0 -58.667 -21.667 -106.667 -65 -144s-107 -62.333 -191 -75l-29 -70h-102zM86 0l43 160h162l-43 -160h-162z" />
    <glyph glyph-name="at" unicode="@" horiz-adv-x="980" 
d="M471 -155c-122 0 -221.834 36.166 -299.501 108.499s-116.5 165.5 -116.5 279.5c0 84.667 21.333 164 64 238s101.667 133.167 177 177.5s157.333 66.5 246 66.5c121.333 0 219.166 -33.667 293.499 -101s111.5 -148.333 111.5 -243
c0 -99.333 -23.167 -175.166 -69.5 -227.499s-102.166 -78.5 -167.499 -78.5c-33.333 0 -62.166 6.83301 -86.499 20.5s-41.833 32.5 -52.5 56.5c-50.667 -52 -104 -78 -160 -78c-46 0 -84.333 15 -115 45s-46 71.333 -46 124c0 78 25.667 143.5 77 196.5
s109.333 79.5 174 79.5c58.667 0 102.334 -23.333 131.001 -70l19 62l111 -31l-79 -249c-11.333 -35.333 -11.333 -62.333 0 -81s30.666 -28 57.999 -28c40 0 77.333 23.5 112 70.5s52 109.833 52 188.5c0 84 -33.333 155.667 -100 215s-154.334 89 -263.001 89
c-82 0 -157.333 -20.5 -226 -61.5s-122.5 -95.333 -161.5 -163s-58.5 -140.167 -58.5 -217.5c0 -102.667 34.833 -186.5 104.5 -251.5s159.834 -97.5 270.501 -97.5c70 0 138.333 15 205 45l16 -35c-70 -32.667 -143.667 -49 -221 -49zM460.999 164.999
c34.667 0 66.334 15.833 95.001 47.5s43 68.834 43 111.501c0 24.667 -8 44.667 -24 60s-37 23 -63 23c-34.667 0 -65.834 -15.333 -93.501 -46s-41.5 -67.334 -41.5 -110.001c0 -26.667 7.5 -47.667 22.5 -63s35.5 -23 61.5 -23z" />
    <glyph glyph-name="A" unicode="A" horiz-adv-x="765" 
d="M-57 0l489 705h148l111 -705h-158l-22 157h-296l-106 -157h-166zM307 293h186l-32 231z" />
    <glyph glyph-name="B" unicode="B" horiz-adv-x="717" 
d="M12 0l187.999 700h272c78.667 0 137.834 -16.167 177.501 -48.5s59.5 -73.5 59.5 -123.5c0 -45.333 -13.5 -83 -40.5 -113s-63.5 -50 -109.5 -60c65.333 -30.667 98 -78 98 -142s-26.5 -115.5 -79.5 -154.5s-126.833 -58.5 -221.5 -58.5h-344zM273.999 417
l155 0.000976562c84 0 126 28.333 126 85c0 19.333 -8 34.666 -24 45.999s-40.333 17 -73 17h-145zM197.999 135.001l180.999 -0.000976562c38.667 0 69.167 7.83301 91.5 23.5s33.5 37.167 33.5 64.5c0 20.667 -8.16699 36.834 -24.5 48.501s-40.166 17.5 -71.499 17.5
h-169z" />
    <glyph glyph-name="C" unicode="C" horiz-adv-x="726" 
d="M397 -12c-96.667 0 -175.834 27.834 -237.501 83.501s-92.5 129.5 -92.5 221.5c0 112.667 41.833 210.667 125.5 294s183.834 125 300.501 125c126 0 219.333 -49.667 280 -149l-127 -89c-22.667 32 -47.167 56 -73.5 72s-59.166 24 -98.499 24
c-64.667 0 -122 -26.833 -172 -80.5s-75 -117.167 -75 -190.5c0 -50 16 -90.667 48 -122s73 -47 123 -47c31.333 0 59.166 5.66699 83.499 17s51.166 28.666 80.499 51.999l100 -104c-77.333 -71.333 -165.666 -107 -264.999 -107z" />
    <glyph glyph-name="D" unicode="D" horiz-adv-x="777" 
d="M12 0l188 700h204c122.667 0 214 -30 274 -90c50.667 -50.667 76 -119 76 -205c0 -107.333 -38.333 -199.333 -115 -276c-86 -86 -208.333 -129 -367 -129h-260zM203 139h87c99.333 0 177.333 28.333 234 85c46.667 46.667 70 105 70 175
c0 46.667 -13.667 83.667 -41 111c-34 34 -87.667 51 -161 51h-75z" />
    <glyph glyph-name="E" unicode="E" horiz-adv-x="665" 
d="M12 0l188 700h523l-37 -137h-370l-38 -143h325l-37 -135h-325l-40 -148h376l-37 -137h-528z" />
    <glyph glyph-name="F" unicode="F" horiz-adv-x="663" 
d="M12 0l188 700h533l-38 -140h-379l-40 -149h334l-37 -140h-334l-73 -271h-154z" />
    <glyph glyph-name="G" unicode="G" horiz-adv-x="780" 
d="M395 -12c-41.333 0 -81.168 6.16797 -119.501 18.501s-73.333 30.5 -105 54.5s-57 56 -76 96s-28.5 85 -28.5 135c0 72.667 18.667 141 56 205s89.833 115.833 157.5 155.5s142.167 59.5 223.5 59.5c128.667 0 224 -40.333 286 -121l-114 -101
c-49.333 54 -110.666 81 -183.999 81c-74 0 -136.667 -27.167 -188 -81.5s-77 -118.5 -77 -192.5c0 -52.667 17 -93.834 51 -123.501s76.667 -44.5 128 -44.5c43.333 0 85 9 125 27l33 114h-155l36 133h304l-99 -349c-78 -44 -162.667 -66 -254 -66z" />
    <glyph glyph-name="H" unicode="H" horiz-adv-x="756" 
d="M12 0l188 700h154l-74 -277h280l74 277h154l-188 -700h-154l76 281h-280l-76 -281h-154z" />
    <glyph glyph-name="I" unicode="I" horiz-adv-x="336" 
d="M19 0l188 700h154l-188 -700h-154z" />
    <glyph glyph-name="J" unicode="J" horiz-adv-x="575" 
d="M188 -10c-46 0 -89.167 10.002 -129.5 30.002s-72.833 49 -97.5 87l109 95c36.667 -46 78.667 -69 126 -69c36.667 0 68 13 94 39c11.333 11.333 21.333 26.666 30 45.999s19 51.666 31 96.999l103 385h158l-113 -422c-14.667 -56.667 -29.167 -100.167 -43.5 -130.5
s-33.833 -57.833 -58.5 -82.5c-50 -50 -119.667 -75 -209 -75z" />
    <glyph glyph-name="K" unicode="K" horiz-adv-x="727" 
d="M12 0l188 700h154l-83 -310l346 310h208l-341 -293l165 -407h-169l-118 315l-145 -124l-51 -191h-154z" />
    <glyph glyph-name="L" unicode="L" horiz-adv-x="626" 
d="M12 0l188 700h154l-150 -560h349l-38 -140h-503z" />
    <glyph glyph-name="M" unicode="M" horiz-adv-x="868" 
d="M12 0l188 700h160l101 -296l261 296h178l-188 -700h-156l122 457l-274 -299h-4l-112 296l-122 -454h-154z" />
    <glyph glyph-name="N" unicode="N" horiz-adv-x="786" 
d="M12 0l188 700h142l204 -445l120 445h152l-188 -700h-131l-212 459l-123 -459h-152z" />
    <glyph glyph-name="O" unicode="O" horiz-adv-x="832" 
d="M387 -12c-95.333 0 -172.5 29.333 -231.5 88s-88.5 132.667 -88.5 222c0 70 17.333 136.5 52 199.5s84.667 114.5 150 154.5s138.333 60 219 60c95.333 0 172.5 -29.333 231.5 -88s88.5 -132.667 88.5 -222c0 -70 -17.333 -136.5 -52 -199.5s-84.667 -114.5 -150 -154.5
s-138.333 -60 -219 -60zM405 130c70 0 128 27.5 174 82.5s69 114.833 69 179.5c0 53.333 -15.667 96.333 -47 129s-75 49 -131 49c-70 0 -128 -27.5 -174 -82.5s-69 -114.833 -69 -179.5c0 -53.333 15.667 -96.333 47 -129s75 -49 131 -49z" />
    <glyph glyph-name="P" unicode="P" horiz-adv-x="679" 
d="M12 0l188.001 700.001h222c99.333 0 172.666 -23.667 219.999 -71c36 -36 54 -84 54 -144c0 -84.667 -32 -151.334 -96 -200.001s-145.333 -73 -244 -73h-133l-57 -212h-154zM259.001 347.001l105 0.000976562c52 0 93.5 11.167 124.5 33.5s46.5 52.833 46.5 91.5
c0 23.333 -7.66699 42.666 -23 57.999c-20.667 20.667 -52.667 31 -96 31h-100z" />
    <glyph glyph-name="Q" unicode="Q" horiz-adv-x="832" 
d="M618 -44l-46 74c-56 -28 -117.667 -42 -185 -42c-95.333 0 -172.5 29.333 -231.5 88s-88.5 132.667 -88.5 222c0 70 17.333 136.5 52 199.5s84.667 114.5 150 154.5s138.333 60 219 60c95.333 0 172.5 -29.333 231.5 -88s88.5 -132.667 88.5 -222
c0 -110.667 -39.667 -206.667 -119 -288l56 -74zM405 130c30 0 59.333 6 88 18l-90 122l127 85l71 -114c31.333 48 47 98.333 47 151c0 53.333 -15.667 96.333 -47 129s-75 49 -131 49c-70 0 -128 -27.5 -174 -82.5s-69 -114.833 -69 -179.5
c0 -53.333 15.667 -96.333 47 -129s75 -49 131 -49z" />
    <glyph glyph-name="R" unicode="R" horiz-adv-x="727" 
d="M12 0l188 700h255c101.333 0 175.333 -23.333 222 -70c36 -36 54 -83 54 -141c0 -68 -21.333 -123.333 -64 -166c-40 -40 -94 -68 -162 -84l119 -239h-175l-108 224h-115l-60 -224h-154zM263 360l137 -0.000976562c64 0 111 15 141 45c19.333 19.333 29 43 29 71
c0 22.667 -7.33301 41.334 -22 56.001c-19.333 19.333 -53.333 29 -102 29h-129z" />
    <glyph glyph-name="S" unicode="S" horiz-adv-x="636" 
d="M295 -10c-136.667 0 -238.332 42.998 -304.999 128.998l116 98c56 -61.333 121.333 -92 196 -92c31.333 0 57 6.66699 77 20s30 31 30 53c0 17.333 -8.16699 32.333 -24.5 45s-47.833 28.334 -94.5 47.001c-54 22 -96.167 47.333 -126.5 76s-45.5 66.334 -45.5 113.001
c0 69.333 27 125.166 81 167.499s119.667 63.5 197 63.5c110 0 197.333 -34.667 262 -104l-106 -106c-28 26 -54.833 45 -80.5 57s-54.834 18 -87.501 18c-30.667 0 -55.334 -7.16699 -74.001 -21.5s-28 -30.833 -28 -49.5c0 -18 8 -32.667 24 -44s49 -27.333 99 -48
c54.667 -22 96.334 -47.167 125.001 -75.5s43 -66.166 43 -113.499c0 -70.667 -27.167 -127.167 -81.5 -169.5s-119.833 -63.5 -196.5 -63.5z" />
    <glyph glyph-name="T" unicode="T" horiz-adv-x="620" 
d="M159 0l150 558h-213l38 142h580l-38 -142h-213l-150 -558h-154z" />
    <glyph glyph-name="U" unicode="U" horiz-adv-x="764" 
d="M343 -11c-81.333 0 -145.335 20.832 -192.002 62.499s-70 99.5 -70 173.5c0 34.667 5.66699 72 17 112l97 363h154l-101 -377c-7.33301 -25.333 -11 -50.666 -11 -75.999c0 -35.333 10.667 -63.5 32 -84.5s51.333 -31.5 90 -31.5c45.333 0 83.333 14.667 114 44
c30.667 30.667 53.334 74 68.001 130l106 395h154l-112 -417c-24 -90.667 -60 -160 -108 -208c-57.333 -57.333 -136.666 -86 -237.999 -86z" />
    <glyph glyph-name="V" unicode="V" horiz-adv-x="724" 
d="M216 -5l-91 705h165l48 -488l310 488h173l-469 -705h-136z" />
    <glyph glyph-name="W" unicode="W" horiz-adv-x="1108" 
d="M180 -5l-50 705h160l18 -474l282 476h132l32 -476l272 474h174l-428 -705h-143l-34 449l-274 -449h-141z" />
    <glyph glyph-name="X" unicode="X" horiz-adv-x="700" 
d="M-51 0l338 363l-150 337h173l88 -225l196 225h197l-329 -354l155 -346h-173l-94 235l-204 -235h-197z" />
    <glyph glyph-name="Y" unicode="Y" horiz-adv-x="650" 
d="M169 0l74 276l-145 424h171l82 -290l240 290h186l-383 -438l-71 -262h-154z" />
    <glyph glyph-name="Z" unicode="Z" horiz-adv-x="689" 
d="M-19 0l31 117l492 448h-360l37 135h568l-32 -117l-492 -448h375l-36 -135h-583z" />
    <glyph glyph-name="bracketleft" unicode="[" horiz-adv-x="465" 
d="M-10 -130l223 830h323l-32 -119h-177l-159 -592h177l-32 -119h-323z" />
    <glyph glyph-name="backslash" unicode="\" horiz-adv-x="530" 
d="M326 -128l-208 926h126l208 -926h-126z" />
    <glyph glyph-name="bracketright" unicode="]" horiz-adv-x="465" 
d="M-62 -130l32 119h177l159 592h-177l32 119h323l-223 -830h-323z" />
    <glyph glyph-name="asciicircum" unicode="^" 
d="M84 493l204 207h104l92 -207h-99l-60 117l-122 -117h-119z" />
    <glyph glyph-name="underscore" unicode="_" horiz-adv-x="600" 
d="M-115 -160l31 116h604l-31 -116h-604z" />
    <glyph glyph-name="grave" unicode="`" 
d="M346 595l-95 120l134 57l65 -177h-104z" />
    <glyph glyph-name="a" unicode="a" horiz-adv-x="588" 
d="M163 -10c-46 0 -83.498 13.499 -112.498 40.499s-43.5 61.5 -43.5 103.5c0 60 21.667 107.167 65 141.5s98.666 51.5 165.999 51.5c49.333 0 99.666 -8 150.999 -24l2 7c4 16 6 29.333 6 40c0 42 -33.667 63 -101 63c-48 0 -95.667 -9.66699 -143 -29l-24 120
c60.667 25.333 127 38 199 38c71.333 0 125.333 -14.167 162 -42.5s55 -69.166 55 -122.499c0 -23.333 -4 -50.333 -12 -81l-79 -296h-147l16 62c-44.667 -48 -98 -72 -160 -72zM228.002 93.999c30.667 0 58.667 10.5 84 31.5s42.333 46.5 51 76.5l4 14
c-32.667 12.667 -66 19 -100 19c-32 0 -58.167 -7.66699 -78.5 -23s-30.5 -35.666 -30.5 -60.999c0 -16.667 6.33301 -30.334 19 -41.001s29.667 -16 51 -16z" />
    <glyph glyph-name="b" unicode="b" horiz-adv-x="674" 
d="M337 -10c-73.333 0 -129.333 29.333 -168 88l-21 -78h-151l194 730h152l-67 -252c48.667 45.333 99 68 151 68c60 0 109.333 -20.667 148 -62s58 -97.333 58 -168c0 -92.667 -29.833 -170.167 -89.5 -232.5s-128.5 -93.5 -206.5 -93.5zM317 118
c42 0 79.001 18.168 111.001 54.501s48 80.833 48 133.5c0 34.667 -10.167 62 -30.5 82s-47.5 30 -81.5 30c-42.667 0 -80.334 -18.333 -113.001 -55s-49 -80.334 -49 -131.001c0 -34 10.667 -61.5 32 -82.5s49 -31.5 83 -31.5z" />
    <glyph glyph-name="c" unicode="c" horiz-adv-x="560" 
d="M292 -12c-73.333 0 -133.331 22.166 -179.998 66.499s-70 102.833 -70 175.5c0 87.333 31.167 161.833 93.5 223.5s136.5 92.5 222.5 92.5c101.333 0 174.666 -39.333 219.999 -118l-116 -82c-15.333 23.333 -31.5 40.833 -48.5 52.5s-39.5 17.5 -67.5 17.5
c-40 0 -75.667 -18.667 -107 -56s-47 -80.666 -47 -129.999c0 -34 10 -61.333 30 -82s45 -31 75 -31c39.333 0 79.666 17.667 120.999 53l78 -99c-30.667 -27.333 -61.667 -48 -93 -62s-68.333 -21 -111 -21z" />
    <glyph glyph-name="d" unicode="d" horiz-adv-x="674" 
d="M246 -10c-60 0 -109.333 20.667 -148 62s-58 97.333 -58 168c0 92.667 29.833 170.167 89.5 232.5s128.5 93.5 206.5 93.5c73.333 0 129.333 -29.333 168 -88l72 272h152l-195 -730h-152l16 58c-48.667 -45.333 -99 -68 -151 -68zM309 118
c42.667 0 80.333 18.332 113 54.999s49 80.334 49 131.001c0 34 -10.667 61.5 -32 82.5s-49 31.5 -83 31.5c-42 0 -79 -18.167 -111 -54.5s-48 -80.833 -48 -133.5c0 -34.667 10.167 -62 30.5 -82s47.5 -30 81.5 -30z" />
    <glyph glyph-name="e" unicode="e" horiz-adv-x="607" 
d="M184 215c5.33301 -70 45.999 -105 121.999 -105c38.667 0 78.334 14.333 119.001 43l70 -94c-56.667 -47.333 -125.334 -71 -206.001 -71c-77.333 0 -138 21.167 -182 63.5s-66 100.5 -66 174.5c0 52.667 12.833 103.167 38.5 151.5s63.334 88.5 113.001 120.5
s105.167 48 166.5 48c68 0 121.5 -19.5 160.5 -58.5s58.5 -89.167 58.5 -150.5c0 -38 -9 -78.667 -27 -122h-367zM196.999 310l233.001 0.000976562c3.33301 11.333 5 23 5 35c0 23.333 -7.33301 42.333 -22 57s-36.667 22 -66 22c-34 0 -64.333 -10.333 -91 -31
s-46.334 -48.334 -59.001 -83.001z" />
    <glyph glyph-name="f" unicode="f" horiz-adv-x="411" 
d="M23 0l110 406h-64l35 130h63l7 29c30 114.667 102.333 172 217 172c41.333 0 76 -5 104 -15l-33 -126c-22 8.66699 -44 13 -66 13c-39.333 0 -64.333 -19.333 -75 -58l-4 -15h129l-35 -130h-126l-110 -406h-152z" />
    <glyph glyph-name="g" unicode="g" horiz-adv-x="671" 
d="M250 -162c-114.667 0 -209 25.001 -283 75.001l80 104c59.333 -39.333 123.666 -59 192.999 -59c48.667 0 87.334 14.333 116.001 43c20 20 36.333 52 49 96l5 18c-28.667 -25.333 -55.667 -43.5 -81 -54.5s-54.333 -16.5 -87 -16.5c-54.667 0 -101.5 16.667 -140.5 50
s-58.5 79 -58.5 137c0 87.333 29.833 161.666 89.5 222.999s127.5 92 203.5 92c73.333 0 127.666 -31 162.999 -93l22 83h152l-115 -431c-14 -53.333 -27.667 -93.333 -41 -120s-31 -51 -53 -73c-49.333 -49.333 -120.666 -74 -213.999 -74zM302 165.001
c42 0 78.832 15.5 110.499 46.5s47.5 67.5 47.5 109.5c0 30 -9.66699 53.833 -29 71.5s-45 26.5 -77 26.5c-42 0 -78.167 -16 -108.5 -48s-45.5 -69 -45.5 -111c0 -30.667 9.33301 -54.167 28 -70.5s43.334 -24.5 74.001 -24.5z" />
    <glyph glyph-name="h" unicode="h" horiz-adv-x="622" 
d="M-3 0l194.001 730h152l-66 -250c49.333 44 98 66 146 66s86.333 -14 115 -42s43 -66 43 -114c0 -22.667 -6 -56.667 -18 -102l-77 -288h-152l79 294c4.66699 17.333 7 33.333 7 48c0 44 -24.667 66 -74 66c-29.333 0 -53.833 -9.5 -73.5 -28.5
s-33.834 -45.167 -42.501 -78.5l-81 -301h-152z" />
    <glyph glyph-name="i" unicode="i" horiz-adv-x="302" 
d="M159 595l37 135h160l-37 -135h-160zM3 0l144 536h152l-144 -536h-152z" />
    <glyph glyph-name="j" unicode="j" horiz-adv-x="301" 
d="M159 595l36 135h160l-36 -135h-160zM-46 -163c-30.667 0 -58.333 2.66699 -83 8l32 119c13.333 -3.33301 25.666 -5 36.999 -5c16.667 0 31.334 6.5 44.001 19.5s22 30.833 28 53.5l135 504h152l-140 -523c-32 -117.333 -100.333 -176 -205 -176z" />
    <glyph glyph-name="k" unicode="k" horiz-adv-x="591" 
d="M-3 0l196 730h152l-102 -378l217 184h198l-259 -209l117 -327h-170l-76 227l-77 -62l-44 -165h-152z" />
    <glyph glyph-name="l" unicode="l" horiz-adv-x="302" 
d="M3 0l196 730h152l-196 -730h-152z" />
    <glyph glyph-name="m" unicode="m" horiz-adv-x="949" 
d="M-3 0l143.002 536.001h152l-15 -56c49.333 44 96.666 66 141.999 66c71.333 0 118.666 -32.333 141.999 -97c53.333 64.667 117.333 97 192 97c48 0 85.833 -13.833 113.5 -41.5s41.5 -65.834 41.5 -114.501c0 -22.667 -6 -56.667 -18 -102l-77 -288h-152l79 294
c4.66699 17.333 7 33.333 7 48c0 44 -23.667 66 -71 66c-57.333 0 -95.333 -35.667 -114 -107l-81 -301h-152l79 294c4.66699 17.333 7 33.333 7 48c0 44 -23.667 66 -71 66c-57.333 0 -95.333 -35.667 -114 -107l-81 -301h-152z" />
    <glyph glyph-name="n" unicode="n" horiz-adv-x="619" 
d="M-3 0l143.001 536h152l-15 -56c49.333 44 98 66 146 66s86.333 -14 115 -42s43 -66 43 -114c0 -22.667 -6 -56.667 -18 -102l-77 -288h-152l79 294c4.66699 17.333 7 33.333 7 48c0 44 -24.667 66 -74 66c-29.333 0 -53.833 -9.5 -73.5 -28.5
s-33.834 -45.167 -42.501 -78.5l-81 -301h-152z" />
    <glyph glyph-name="o" unicode="o" horiz-adv-x="652" 
d="M300 -12c-78 0 -140.5 23.167 -187.5 69.5s-70.5 105.833 -70.5 178.5c0 81.333 30.5 153.333 91.5 216s133.833 94 218.5 94c78 0 140.5 -23.167 187.5 -69.5s70.5 -105.833 70.5 -178.5c0 -81.333 -30.5 -153.333 -91.5 -216s-133.833 -94 -218.5 -94zM307 118
c44 0 80.667 19 110 57s44 77.667 44 119c0 38.667 -10.5 68.667 -31.5 90s-49.167 32 -84.5 32c-44 0 -80.667 -19 -110 -57s-44 -77.667 -44 -119c0 -38.667 10.5 -68.667 31.5 -90s49.167 -32 84.5 -32z" />
    <glyph glyph-name="p" unicode="p" horiz-adv-x="674" 
d="M-46 -160l186 696h152l-16 -58c48.667 45.333 99 68 151 68c60 0 109.333 -20.667 148 -62s58 -97.333 58 -168c0 -92.667 -29.833 -170.167 -89.5 -232.5s-128.5 -93.5 -206.5 -93.5c-73.333 0 -129.333 29.333 -168 88l-63 -238h-152zM317 118
c42 0 79.001 18.168 111.001 54.501s48 80.833 48 133.5c0 34.667 -10.167 62 -30.5 82s-47.5 30 -81.5 30c-42.667 0 -80.334 -18.333 -113.001 -55s-49 -80.334 -49 -131.001c0 -34 10.667 -61.5 32 -82.5s49 -31.5 83 -31.5z" />
    <glyph glyph-name="q" unicode="q" horiz-adv-x="674" 
d="M328 -200l69 258c-48.667 -45.333 -99 -68 -151 -68c-60 0 -109.333 20.667 -148 62s-58 97.333 -58 168c0 92.667 29.833 170.167 89.5 232.5s128.5 93.5 206.5 93.5c73.333 0 129.333 -29.333 168 -88l20 78h152l-196 -736h-152zM309 118
c42.667 0 80.333 18.332 113 54.999s49 80.334 49 131.001c0 34 -10.667 61.5 -32 82.5s-49 31.5 -83 31.5c-42 0 -79 -18.167 -111 -54.5s-48 -80.833 -48 -133.5c0 -34.667 10.167 -62 30.5 -82s47.5 -30 81.5 -30z" />
    <glyph glyph-name="r" unicode="r" horiz-adv-x="419" 
d="M-3 0l143 536h152l-29 -108c58 84.667 126 124 204 118l-43 -159h-8c-109.333 0 -181.333 -65.667 -216 -197l-51 -190h-152z" />
    <glyph glyph-name="s" unicode="s" 
d="M217 -12c-43.333 0 -86.832 8.33203 -130.499 24.999s-80.5 40.667 -110.5 72l88 91c48 -48 102.667 -72 164 -72c42.667 0 64 15.667 64 47c0 15.333 -20.667 32 -62 50c-25.333 10.667 -45.5 20 -60.5 28s-30.833 18.333 -47.5 31s-28.834 27 -36.501 43
s-11.5 34.333 -11.5 55c0 54.667 19.5 99.667 58.5 135s91.167 53 156.5 53c40.667 0 80 -7.5 118 -22.5s69 -33.167 93 -54.5l-82 -96c-48 38 -94.667 57 -140 57c-18.667 0 -33.167 -4 -43.5 -12s-15.5 -19 -15.5 -33c0 -10 5.66699 -19 17 -27s29.333 -17.667 54 -29
c22 -10 39.833 -18.667 53.5 -26s28.667 -17.166 45 -29.499s28.5 -26.5 36.5 -42.5s12 -34 12 -54c0 -58 -20.5 -104 -61.5 -138s-93.833 -51 -158.5 -51z" />
    <glyph glyph-name="t" unicode="t" horiz-adv-x="415" 
d="M192 -9c-44 0 -77.833 9.83203 -101.5 29.499s-35.5 44.834 -35.5 75.501c0 18 3.33301 40.333 10 67l65 243h-64l35 130h64l37 137h152l-37 -137h126l-35 -130h-126l-60 -225c-2.66699 -10.667 -4 -18.667 -4 -24c0 -21.333 13.667 -32 41 -32c26 0 52 5.66699 78 17
l-35 -129c-31.333 -14.667 -68 -22 -110 -22z" />
    <glyph glyph-name="u" unicode="u" horiz-adv-x="622" 
d="M199 -10c-48 0 -86.334 14 -115.001 42s-43 66 -43 114c0 22.667 6 56.667 18 102l77 288h152l-79 -294c-4.66699 -17.333 -7 -33.333 -7 -48c0 -44 24.667 -66 74 -66c29.333 0 53.833 9.5 73.5 28.5s33.834 45.167 42.501 78.5l81 301h152l-143 -536h-152l15 56
c-49.333 -44 -98 -66 -146 -66z" />
    <glyph glyph-name="v" unicode="v" horiz-adv-x="592" 
d="M150 -4l-65 540h156l24 -357l213 357h163l-353 -540h-138z" />
    <glyph glyph-name="w" unicode="w" horiz-adv-x="857" 
d="M109 -4l-20 540h154l-1 -325l188 327h131l14 -328l176 326h151l-312 -540h-137l-15 329l-193 -329h-136z" />
    <glyph glyph-name="x" unicode="x" horiz-adv-x="578" 
d="M-50 0l262 280l-117 256h162l60 -150l126 150h181l-251 -271l118 -265h-162l-62 159l-136 -159h-181z" />
    <glyph glyph-name="y" unicode="y" horiz-adv-x="592" 
d="M85 -163c-48 0 -89.6699 12.334 -125.003 37.001l81 110c18.667 -14 38.334 -21 59.001 -21c22 0 41.667 11 59 33l-66 540h155l25 -364l201 364h164l-332 -549c-35.333 -54.667 -69.666 -93.334 -102.999 -116.001s-72.666 -34 -117.999 -34z" />
    <glyph glyph-name="z" unicode="z" horiz-adv-x="557" 
d="M-27 0l29 107l351 306h-260l33 123h454l-29 -107l-352 -306h273l-33 -123h-466z" />
    <glyph glyph-name="braceleft" unicode="{" horiz-adv-x="490" 
d="M308 -141c-66 12.667 -113.499 31.3311 -142.499 55.998s-43.5 57 -43.5 97c0 22 6.66699 50.667 20 86c10.667 28 16 51.667 16 71c0 20.667 -5 35.834 -15 45.501s-32.333 14.5 -67 14.5h-32l31 116h32c48 0 81.667 9.83301 101 29.5s33 60.834 41 123.501
c9.33301 75.333 36 130.166 80 164.499s111.333 51.833 202 52.5l10 -102c-60.667 -6 -101.334 -19.667 -122.001 -41s-33.667 -58 -39 -110c-7.33301 -66.667 -23.333 -113.167 -48 -139.5s-63 -42.166 -115 -47.499c27.333 -4 48.333 -14 63 -30s22 -35.667 22 -59
c0 -20.667 -6 -46.334 -18 -77.001c-11.333 -31.333 -17 -54.666 -17 -69.999c0 -20.667 6 -37 18 -49s36.333 -24.667 73 -38z" />
    <glyph glyph-name="bar" unicode="|" horiz-adv-x="350" 
d="M132 -128v926h120v-926h-120z" />
    <glyph glyph-name="braceright" unicode="}" horiz-adv-x="490" 
d="M-31 -141l-10 102.002c60 6 100.333 19.5 121 40.5s34 57.833 40 110.5c7.33301 66.667 23.333 113.167 48 139.5s63 42.166 115 47.499c-27.333 4 -48.333 14 -63 30s-22 35.667 -22 59c0 20.667 6 46.334 18 77.001c11.333 30 17 53.333 17 70c0 20.667 -6 37 -18 49
s-36.333 24.667 -73 38l50 93c66 -12.667 113.5 -31.334 142.5 -56.001s43.5 -57 43.5 -97c0 -22 -6.66699 -50.667 -20 -86c-10.667 -28 -16 -51.667 -16 -71c0 -20.667 5 -35.834 15 -45.501s32.333 -14.5 67 -14.5h32l-31 -116h-32c-48 0 -81.667 -9.83301 -101 -29.5
s-33 -60.834 -41 -123.501c-9.33301 -75.333 -36 -130.166 -80 -164.499s-111.333 -51.833 -202 -52.5z" />
    <glyph glyph-name="asciitilde" unicode="~" horiz-adv-x="510" 
d="M135 220l-80.001 40c18 40.667 40.333 73 67 97s55.334 36 86.001 36c26.667 0 53 -9.66699 79 -29c24 -17.333 41.667 -26 53 -26c24.667 0 48 19.667 70 59l80 -40c-18 -40.667 -40.333 -73 -67 -97s-55.334 -36 -86.001 -36c-25.333 0 -51.666 9.66699 -78.999 29
c-24 17.333 -41.667 26 -53 26c-24.667 0 -48 -19.667 -70 -59z" />
    <glyph glyph-name="uni00A0" unicode="&#xa0;" horiz-adv-x="300" 
 />
    <glyph glyph-name="exclamdown" unicode="&#xa1;" horiz-adv-x="325" 
d="M154 540l43 160h162l-43 -160h-162zM1 0l6 20l165 442h84l-71 -442l-6 -20h-178z" />
    <glyph glyph-name="cent" unicode="&#xa2;" horiz-adv-x="586" 
d="M202 104c-43.333 20 -76.833 49.1689 -100.5 87.502s-35.5 83.166 -35.5 134.499c0 87.333 30.5 160.5 91.5 219.5s136.167 88.5 225.5 88.5c11.333 0 20 -0.333008 26 -1l28 73h104l-37 -94c49.333 -21.333 87 -54.333 113 -99l-115 -80
c-14.667 23.333 -32 40.666 -52 51.999l-109 -279c43.333 0.666992 85 17 125 49l80 -103c-56.667 -50.667 -124.667 -76 -204 -76c-16 0 -31.333 1 -46 3l-33 -85h-104zM363 503.002c-42.667 -4.66699 -78 -24.332 -106 -58.999s-42 -73.334 -42 -116.001
c0 -40 14 -71.667 42 -95z" />
    <glyph glyph-name="sterling" unicode="&#xa3;" horiz-adv-x="644" 
d="M-13 0l27.002 101l83 25l38 141h-76l34 127h76l25 94c17.333 64.667 44 115 80 151c47.333 47.333 109.666 71 186.999 71c98.667 0 170 -40 214 -120l-123 -84c-25.333 41.333 -59.333 62 -102 62c-26.667 0 -49.334 -9.33301 -68.001 -28c-18 -18 -31.667 -44 -41 -78
l-19 -68h231l-34 -127h-230l-36 -134h306l-36 -133h-536z" />
    <glyph glyph-name="currency" unicode="&#xa4;" horiz-adv-x="720" 
d="M396 -12c-75.333 0 -137.167 20.499 -185.5 61.499s-77.166 96.833 -86.499 167.5h-100l27 101h75c3.33301 25.333 7.66602 48 12.999 68h-70l27 101h73c30 68 73.333 122.5 130 163.5s122.334 61.5 197.001 61.5c130 0 214.333 -54.333 253 -163l-131 -65
c-14.667 31.333 -31.5 54 -50.5 68s-45.5 21 -79.5 21c-62.667 0 -111.667 -28.667 -147 -86h193l-27 -101h-204c-6.66699 -18 -12.334 -40.667 -17.001 -68h203l-27 -101h-177c6 -29.333 19.333 -51.666 40 -66.999s45.334 -23 74.001 -23c28 0 52.667 5.5 74 16.5
s43.666 28.833 66.999 53.5l104 -90c-66 -79.333 -148.667 -119 -248 -119z" />
    <glyph glyph-name="yen" unicode="&#xa5;" horiz-adv-x="711" 
d="M209 0l25 92h-184l29 108h184l16 62h-184l29 108h143l-125 330h166l84 -259l225 259h183l-305 -330h145l-29 -108h-184l-16 -62h184l-29 -108h-184l-25 -92h-148z" />
    <glyph glyph-name="brokenbar" unicode="&#xa6;" horiz-adv-x="222" 
d="M175 411h-128v250h128v-250zM175 -89h-128v250h128v-250z" />
    <glyph glyph-name="section" unicode="&#xa7;" horiz-adv-x="632" 
d="M283 -9c-50.667 0 -96.5 8.16699 -137.5 24.5s-73.5 39.166 -97.5 68.499l95 84c42 -42 91.333 -63 148 -63c21.333 0 38.333 3.5 51 10.5s19 16.167 19 27.5c0 10.667 -7 19.667 -21 27s-41 16.333 -81 27c-30 8 -54.5 15.5 -73.5 22.5s-38.167 16 -57.5 27
s-33.666 24.167 -42.999 39.5s-14 33.333 -14 54c0 33.333 11.5 61.333 34.5 84s56.833 38.667 101.5 48c-24 22.667 -36 50.334 -36 83.001c0 45.333 21.167 82.833 63.5 112.5s95.5 44.5 159.5 44.5c50.667 0 96.5 -8.16699 137.5 -24.5s73.5 -39.166 97.5 -68.499
l-95 -84c-42 42 -91.333 63 -148 63c-21.333 0 -38.333 -3.5 -51 -10.5s-19 -16.167 -19 -27.5c0 -10.667 7 -19.667 21 -27s41 -16.333 81 -27c30 -8 54.5 -15.5 73.5 -22.5s38.167 -16 57.5 -27s33.666 -24.167 42.999 -39.5s14 -33.333 14 -54
c0 -33.333 -11.5 -61.333 -34.5 -84s-56.833 -38.667 -101.5 -48c24 -22.667 36 -50.334 36 -83.001c0 -45.333 -21.167 -82.833 -63.5 -112.5s-95.5 -44.5 -159.5 -44.5zM399 288c17.333 0 32.5 4.66699 45.5 14s19.5 21 19.5 35c0 12.667 -6.66699 23 -20 31
s-35.333 16.667 -66 26c-46 14 -79.333 21 -100 21c-17.333 0 -32.5 -4.66699 -45.5 -14s-19.5 -21 -19.5 -35c0 -12.667 6.66699 -23 20 -31s35.333 -16.667 66 -26c46 -14 79.333 -21 100 -21z" />
    <glyph glyph-name="dieresis" unicode="&#xa8;" 
d="M371 595l37 135h146l-37 -135h-146zM157 595l37 135h146l-37 -135h-146z" />
    <glyph glyph-name="copyright" unicode="&#xa9;" horiz-adv-x="830" 
d="M435 -12c-100.667 0 -186 35.333 -256 106s-105 155.667 -105 255s35.333 184.666 106 255.999s156.334 107 257.001 107s186 -35.333 256 -106s105 -155.667 105 -255s-35.333 -184.666 -106 -255.999s-156.334 -107 -257.001 -107zM435 28
c90.667 0 166.834 31.333 228.501 94s92.5 139 92.5 229c0 89.333 -30.5 165.166 -91.5 227.499s-136.833 93.5 -227.5 93.5s-166.834 -31.333 -228.501 -94s-92.5 -139 -92.5 -229c0 -89.333 30.5 -165.166 91.5 -227.499s136.833 -93.5 227.5 -93.5zM440 156
c-56 0 -102.833 19 -140.5 57s-56.5 85 -56.5 141s18.833 103.333 56.5 142s85.5 58 143.5 58c60.667 0 111.334 -19.667 152.001 -59l-55 -64c-32 28.667 -64.333 43 -97 43c-31.333 0 -57.5 -11.5 -78.5 -34.5s-31.5 -51.167 -31.5 -84.5s10.333 -61.5 31 -84.5
s47 -34.5 79 -34.5c32.667 0 65.667 15 99 45l56 -56c-42.667 -46 -95.334 -69 -158.001 -69z" />
    <glyph glyph-name="ordfeminine" unicode="&#xaa;" horiz-adv-x="390" 
d="M188 400c-25.333 0 -46.001 7.33301 -62.001 22s-24 33.667 -24 57c0 33.333 12 59.5 36 78.5s54.333 28.5 91 28.5c28 0 56 -4.66699 84 -14l2 7c2 6 3 11.667 3 17c0 24.667 -19 37 -57 37c-27.333 0 -53.333 -5.33301 -78 -16l-14 66c33.333 14 70 21 110 21
c79.333 0 119 -30.333 119 -91c0 -15.333 -2 -30 -6 -44l-44 -163h-81l9 34c-25.333 -26.667 -54.666 -40 -87.999 -40zM50.999 277l18 66h266l-18 -66h-266zM223.999 457c16.667 0 32.167 5.83203 46.5 17.499s23.5 25.834 27.5 42.501l2 8c-18.667 6.66699 -37 10 -55 10
s-32.5 -4.16699 -43.5 -12.5s-16.5 -19.5 -16.5 -33.5c0 -9.33301 3.5 -17 10.5 -23s16.5 -9 28.5 -9z" />
    <glyph glyph-name="guillemotleft" unicode="&#xab;" horiz-adv-x="643" 
d="M424 31l-108 224l2 8l237 233l87 -80l-176 -171l80 -160zM154 31l-108 224l2 8l237 233l87 -80l-176 -171l80 -160z" />
    <glyph glyph-name="logicalnot" unicode="&#xac;" horiz-adv-x="640" 
d="M546 238h-139l47 174h-342l37 135h480z" />
    <glyph glyph-name="uni00AD" unicode="&#xad;" horiz-adv-x="412" 
d="M44 237l39 146h308l-39 -146h-308z" />
    <glyph glyph-name="registered" unicode="&#xae;" horiz-adv-x="830" 
d="M435 -12c-100.667 0 -186 35.333 -256 106s-105 155.667 -105 255s35.333 184.666 106 255.999s156.334 107 257.001 107s186 -35.333 256 -106s105 -155.667 105 -255s-35.333 -184.666 -106 -255.999s-156.334 -107 -257.001 -107zM435 28
c90.667 0 166.834 31.333 228.501 94s92.5 139 92.5 229c0 89.333 -30.5 165.166 -91.5 227.499s-136.833 93.5 -227.5 93.5s-166.834 -31.333 -228.501 -94s-92.5 -139 -92.5 -229c0 -89.333 30.5 -165.166 91.5 -227.499s136.833 -93.5 227.5 -93.5zM287 168v385h171
c46.667 0 83.5 -11.167 110.5 -33.5s40.5 -53.5 40.5 -93.5c0 -60 -27.667 -100 -83 -120l94 -138h-99l-82 124h-67v-124h-85zM372 365h85.001c21.333 0 37.666 5.16699 48.999 15.5s17 23.833 17 40.5c0 38 -22.667 57 -68 57h-83v-113z" />
    <glyph glyph-name="macron" unicode="&#xaf;" 
d="M159 600l28 105h360l-28 -105h-360z" />
    <glyph glyph-name="degree" unicode="&#xb0;" horiz-adv-x="445" 
d="M249 363c-48.667 0 -87.667 14.333 -117 43s-44 65.667 -44 111c0 50.667 18.667 95.334 56 134.001s82.333 58 135 58c48.667 0 87.667 -14.333 117 -43s44 -65.667 44 -111c0 -50.667 -18.667 -95.334 -56 -134.001s-82.333 -58 -135 -58zM252 441
c28 0 51.5 11.5 70.5 34.5s28.5 48.5 28.5 76.5c0 23.333 -6.83301 42.333 -20.5 57s-31.834 22 -54.501 22c-28 0 -51.5 -11.5 -70.5 -34.5s-28.5 -48.5 -28.5 -76.5c0 -23.333 6.83301 -42.333 20.5 -57s31.834 -22 54.501 -22z" />
    <glyph glyph-name="plusminus" unicode="&#xb1;" horiz-adv-x="640" 
d="M581 325h-184l-38 -145h-141l39 145h-184l36 134h184l39 145h140l-39 -145h184zM485 -5h-491l33 126h492z" />
    <glyph glyph-name="twosuperior" unicode="&#xb2;" 
d="M0 0v700h500v-700h-500zM81 49h340l-171 255zM50 95l170 254l-170 256v-510zM451 95v510l-172 -256zM250 395l171 255h-340z" />
    <glyph glyph-name="threesuperior" unicode="&#xb3;" 
d="M0 0v700h500v-700h-500zM81 49h340l-171 255zM50 95l170 254l-170 256v-510zM451 95v510l-172 -256zM250 395l171 255h-340z" />
    <glyph glyph-name="acute" unicode="&#xb4;" 
d="M208 595l161 177l128 -57l-161 -120h-128z" />
    <glyph glyph-name="mu" unicode="&#xb5;" horiz-adv-x="639" 
d="M204 -4c-22 0 -39.3311 8.66699 -51.998 26l-49 -182h-149l186 696h151l-80 -300c-4 -16 -6 -31.333 -6 -46c0 -43.333 22.667 -65 68 -65c31.333 0 60.166 10.167 86.499 30.5s44.166 47.833 53.499 82.5l79 298h150l-142 -536h-151l21 78
c-52 -54.667 -107.333 -82 -166 -82z" />
    <glyph glyph-name="paragraph" unicode="&#xb6;" horiz-adv-x="599" 
d="M290 0l56 212.003c-82.667 1.33301 -146.5 19.666 -191.5 54.999s-67.5 87.666 -67.5 156.999c0 81.333 30 147.666 90 198.999s147.667 77 263 77h191l-188 -700h-153z" />
    <glyph glyph-name="periodcentered" unicode="&#xb7;" horiz-adv-x="319" 
d="M64 230l43 160h162l-43 -160h-162z" />
    <glyph glyph-name="cedilla" unicode="&#xb8;" 
d="M157 -173l-113 53l124 130h112z" />
    <glyph glyph-name="onesuperior" unicode="&#xb9;" 
d="M0 0v700h500v-700h-500zM81 49h340l-171 255zM50 95l170 254l-170 256v-510zM451 95v510l-172 -256zM250 395l171 255h-340z" />
    <glyph glyph-name="ordmasculine" unicode="&#xba;" horiz-adv-x="402" 
d="M246 399c-42.667 0 -77 12.667 -103 38s-39 58 -39 98c0 45.333 16.5 85 49.5 119s73.167 51 120.5 51c42.667 0 77 -12.667 103 -38s39 -58 39 -98c0 -45.333 -16.5 -85 -49.5 -119s-73.167 -51 -120.5 -51zM51 277l18 66h278l-18 -66h-278zM249 470
c24.667 0 45 10 61 30s24 42 24 66c0 20 -5.83301 36.333 -17.5 49s-26.834 19 -45.501 19c-24.667 0 -45 -10 -61 -30s-24 -42 -24 -66c0 -20 5.83301 -36.333 17.5 -49s26.834 -19 45.501 -19z" />
    <glyph glyph-name="guillemotright" unicode="&#xbb;" horiz-adv-x="643" 
d="M356 31l-87 80l176 171l-80 160l122 54l108 -224l-2 -8zM86 31l-87 80l176 171l-80 160l122 54l108 -224l-2 -8z" />
    <glyph glyph-name="onequarter" unicode="&#xbc;" 
d="M0 0v700h500v-700h-500zM81 49h340l-171 255zM50 95l170 254l-170 256v-510zM451 95v510l-172 -256zM250 395l171 255h-340z" />
    <glyph glyph-name="onehalf" unicode="&#xbd;" 
d="M0 0v700h500v-700h-500zM81 49h340l-171 255zM50 95l170 254l-170 256v-510zM451 95v510l-172 -256zM250 395l171 255h-340z" />
    <glyph glyph-name="threequarters" unicode="&#xbe;" 
d="M0 0v700h500v-700h-500zM81 49h340l-171 255zM50 95l170 254l-170 256v-510zM451 95v510l-172 -256zM250 395l171 255h-340z" />
    <glyph glyph-name="questiondown" unicode="&#xbf;" horiz-adv-x="544" 
d="M297 540l43 160h162l-43 -160h-162zM247 -9c-68 0 -122.167 17.833 -162.5 53.5s-60.5 78.5 -60.5 128.5c0 58.667 21.667 106.667 65 144s107 62.333 191 75l29 70h102l-20 -162l-6 -5c-133.333 -9.33301 -200 -43.333 -200 -102c0 -41.333 27.667 -62 83 -62
c49.333 0 97 19.667 143 59l80 -101c-31.333 -32 -68.5 -56.333 -111.5 -73s-87.167 -25 -132.5 -25z" />
    <glyph glyph-name="Agrave" unicode="&#xc0;" horiz-adv-x="765" 
d="M-57 0l489 705h148l111 -705h-158l-22 157h-296l-106 -157h-166zM307 293h186l-32 231zM462 755l-95 120l134 57l65 -177h-104z" />
    <glyph glyph-name="Aacute" unicode="&#xc1;" horiz-adv-x="765" 
d="M-57 0l489 705h148l111 -705h-158l-22 157h-296l-106 -157h-166zM307 293h186l-32 231zM426 755l161 177l128 -57l-161 -120h-128z" />
    <glyph glyph-name="Acircumflex" unicode="&#xc2;" horiz-adv-x="765" 
d="M-57 0l489 705h148l111 -705h-158l-22 157h-296l-106 -157h-166zM307 293h186l-32 231zM298 755l165 157h144l81 -157h-110l-61 66l-97 -66h-122z" />
    <glyph glyph-name="Atilde" unicode="&#xc3;" horiz-adv-x="765" 
d="M-57 0l489 705h148l111 -705h-158l-22 157h-296l-106 -157h-166zM307 293h186l-32 231zM374 748l-80.001 40c18 40.667 40.333 73 67 97s55.334 36 86.001 36c26.667 0 53 -9.66699 79 -29c24 -17.333 41.667 -26 53 -26c24.667 0 48 19.667 70 59l80 -40
c-18 -40.667 -40.333 -73 -67 -97s-55.334 -36 -86.001 -36c-25.333 0 -51.666 9.66699 -78.999 29c-24 17.333 -41.667 26 -53 26c-24.667 0 -48 -19.667 -70 -59z" />
    <glyph glyph-name="Adieresis" unicode="&#xc4;" horiz-adv-x="765" 
d="M-57 0l489 705h148l111 -705h-158l-22 157h-296l-106 -157h-166zM307 293h186l-32 231zM543 755l37 135h146l-37 -135h-146zM329 755l37 135h146l-37 -135h-146z" />
    <glyph glyph-name="Aring" unicode="&#xc5;" horiz-adv-x="765" 
d="M-57 0l480 692c-17.333 19.333 -26 43 -26 71c0 36.667 13 68.167 39 94.5s57.667 39.5 95 39.5c33.333 0 60 -9.83301 80 -29.5s30 -44.5 30 -74.5c0 -46 -19.333 -82.667 -58 -110l108 -683h-158l-22 157h-296l-106 -157h-166zM509 714c20 0 36.333 7.83301 49 23.5
s19 33.834 19 54.501c0 14.667 -4.33301 26.667 -13 36s-20.334 14 -35.001 14c-20 0 -36.333 -7.83301 -49 -23.5s-19 -33.834 -19 -54.501c0 -14.667 4.33301 -26.667 13 -36s20.334 -14 35.001 -14zM307 293h186l-32 231z" />
    <glyph glyph-name="AE" unicode="&#xc6;" horiz-adv-x="1058" 
d="M-61 0l565 700h612l-37 -137h-350l-38 -143h305l-37 -135h-305l-40 -148h356l-37 -137h-508l42 157h-236l-125 -157h-167zM340 293h164l73 274h-19z" />
    <glyph glyph-name="Ccedilla" unicode="&#xc7;" horiz-adv-x="726" 
d="M388 -12l-108.001 -161l-113 53l117 123c-66.667 19.333 -119.5 54.333 -158.5 105s-58.5 112.334 -58.5 185.001c0 112.667 41.833 210.667 125.5 294s183.834 125 300.501 125c126 0 219.333 -49.667 280 -149l-127 -89c-22.667 32 -47.167 56 -73.5 72
s-59.166 24 -98.499 24c-64.667 0 -122 -26.833 -172 -80.5s-75 -117.167 -75 -190.5c0 -50 16 -90.667 48 -122s73 -47 123 -47c31.333 0 59.166 5.66699 83.499 17s51.166 28.666 80.499 51.999l100 -104c-77.333 -71.333 -165.666 -107 -264.999 -107h-9z" />
    <glyph glyph-name="Egrave" unicode="&#xc8;" horiz-adv-x="665" 
d="M12 0l188 700h523l-37 -137h-370l-38 -143h325l-37 -135h-325l-40 -148h376l-37 -137h-528zM428 755l-95 120l134 57l65 -177h-104z" />
    <glyph glyph-name="Eacute" unicode="&#xc9;" horiz-adv-x="665" 
d="M12 0l188 700h523l-37 -137h-370l-38 -143h325l-37 -135h-325l-40 -148h376l-37 -137h-528zM385 755l161 177l128 -57l-161 -120h-128z" />
    <glyph glyph-name="Ecircumflex" unicode="&#xca;" horiz-adv-x="665" 
d="M12 0l188 700h523l-37 -137h-370l-38 -143h325l-37 -135h-325l-40 -148h376l-37 -137h-528zM279 755l165 157h144l81 -157h-110l-61 66l-97 -66h-122z" />
    <glyph glyph-name="Edieresis" unicode="&#xcb;" horiz-adv-x="665" 
d="M12 0l188 700h523l-37 -137h-370l-38 -143h325l-37 -135h-325l-40 -148h376l-37 -137h-528zM507 755l37 135h146l-37 -135h-146zM293 755l37 135h146l-37 -135h-146z" />
    <glyph glyph-name="Igrave" unicode="&#xcc;" horiz-adv-x="336" 
d="M19 0l188 700h154l-188 -700h-154zM256 755l-95 120l134 57l65 -177h-104z" />
    <glyph glyph-name="Iacute" unicode="&#xcd;" horiz-adv-x="336" 
d="M19 0l188 700h154l-188 -700h-154zM210 755l161 177l128 -57l-161 -120h-128z" />
    <glyph glyph-name="Icircumflex" unicode="&#xce;" horiz-adv-x="336" 
d="M19 0l188 700h154l-188 -700h-154zM92 755l165 157h144l81 -157h-110l-61 66l-97 -66h-122z" />
    <glyph glyph-name="Idieresis" unicode="&#xcf;" horiz-adv-x="336" 
d="M19 0l188 700h154l-188 -700h-154zM331 755l37 135h146l-37 -135h-146zM117 755l37 135h146l-37 -135h-146z" />
    <glyph glyph-name="Eth" unicode="&#xd0;" horiz-adv-x="797" 
d="M32 0l76 284h-83l37 136h83l75 280h204c122.667 0 214 -30 274 -90c50.667 -50.667 76 -119 76 -205c0 -107.333 -38.333 -199.333 -115 -276c-86 -86 -208.333 -129 -367 -129h-260zM223 139h87c99.333 0 177.333 28.333 234 85c46.667 46.667 70 105 70 175
c0 46.667 -13.667 83.667 -41 111c-34 34 -87.667 51 -161 51h-75l-38 -141h142l-37 -136h-142z" />
    <glyph glyph-name="Ntilde" unicode="&#xd1;" horiz-adv-x="786" 
d="M12 0l188 700h142l204 -445l120 445h152l-188 -700h-131l-212 459l-123 -459h-152zM387 748l-80.001 40c18 40.667 40.333 73 67 97s55.334 36 86.001 36c26.667 0 53 -9.66699 79 -29c24 -17.333 41.667 -26 53 -26c24.667 0 48 19.667 70 59l80 -40
c-18 -40.667 -40.333 -73 -67 -97s-55.334 -36 -86.001 -36c-25.333 0 -51.666 9.66699 -78.999 29c-24 17.333 -41.667 26 -53 26c-24.667 0 -48 -19.667 -70 -59z" />
    <glyph glyph-name="Ograve" unicode="&#xd2;" horiz-adv-x="832" 
d="M387 -12c-95.333 0 -172.5 29.333 -231.5 88s-88.5 132.667 -88.5 222c0 70 17.333 136.5 52 199.5s84.667 114.5 150 154.5s138.333 60 219 60c95.333 0 172.5 -29.333 231.5 -88s88.5 -132.667 88.5 -222c0 -70 -17.333 -136.5 -52 -199.5s-84.667 -114.5 -150 -154.5
s-138.333 -60 -219 -60zM405 130c70 0 128 27.5 174 82.5s69 114.833 69 179.5c0 53.333 -15.667 96.333 -47 129s-75 49 -131 49c-70 0 -128 -27.5 -174 -82.5s-69 -114.833 -69 -179.5c0 -53.333 15.667 -96.333 47 -129s75 -49 131 -49zM472 755l-95 120l134 57l65 -177
h-104z" />
    <glyph glyph-name="Oacute" unicode="&#xd3;" horiz-adv-x="832" 
d="M387 -12c-95.333 0 -172.5 29.333 -231.5 88s-88.5 132.667 -88.5 222c0 70 17.333 136.5 52 199.5s84.667 114.5 150 154.5s138.333 60 219 60c95.333 0 172.5 -29.333 231.5 -88s88.5 -132.667 88.5 -222c0 -70 -17.333 -136.5 -52 -199.5s-84.667 -114.5 -150 -154.5
s-138.333 -60 -219 -60zM405 130c70 0 128 27.5 174 82.5s69 114.833 69 179.5c0 53.333 -15.667 96.333 -47 129s-75 49 -131 49c-70 0 -128 -27.5 -174 -82.5s-69 -114.833 -69 -179.5c0 -53.333 15.667 -96.333 47 -129s75 -49 131 -49zM414 755l161 177l128 -57
l-161 -120h-128z" />
    <glyph glyph-name="Ocircumflex" unicode="&#xd4;" horiz-adv-x="832" 
d="M387 -12c-95.333 0 -172.5 29.333 -231.5 88s-88.5 132.667 -88.5 222c0 70 17.333 136.5 52 199.5s84.667 114.5 150 154.5s138.333 60 219 60c95.333 0 172.5 -29.333 231.5 -88s88.5 -132.667 88.5 -222c0 -70 -17.333 -136.5 -52 -199.5s-84.667 -114.5 -150 -154.5
s-138.333 -60 -219 -60zM405 130c70 0 128 27.5 174 82.5s69 114.833 69 179.5c0 53.333 -15.667 96.333 -47 129s-75 49 -131 49c-70 0 -128 -27.5 -174 -82.5s-69 -114.833 -69 -179.5c0 -53.333 15.667 -96.333 47 -129s75 -49 131 -49zM319 755l165 157h144l81 -157
h-110l-61 66l-97 -66h-122z" />
    <glyph glyph-name="Otilde" unicode="&#xd5;" horiz-adv-x="832" 
d="M387 -12c-95.333 0 -172.5 29.333 -231.5 88s-88.5 132.667 -88.5 222c0 70 17.333 136.5 52 199.5s84.667 114.5 150 154.5s138.333 60 219 60c95.333 0 172.5 -29.333 231.5 -88s88.5 -132.667 88.5 -222c0 -70 -17.333 -136.5 -52 -199.5s-84.667 -114.5 -150 -154.5
s-138.333 -60 -219 -60zM405 130c70 0 128 27.5 174 82.5s69 114.833 69 179.5c0 53.333 -15.667 96.333 -47 129s-75 49 -131 49c-70 0 -128 -27.5 -174 -82.5s-69 -114.833 -69 -179.5c0 -53.333 15.667 -96.333 47 -129s75 -49 131 -49zM398 748l-80.001 40
c18 40.667 40.333 73 67 97s55.334 36 86.001 36c26.667 0 53 -9.66699 79 -29c24 -17.333 41.667 -26 53 -26c24.667 0 48 19.667 70 59l80 -40c-18 -40.667 -40.333 -73 -67 -97s-55.334 -36 -86.001 -36c-25.333 0 -51.666 9.66699 -78.999 29
c-24 17.333 -41.667 26 -53 26c-24.667 0 -48 -19.667 -70 -59z" />
    <glyph glyph-name="Odieresis" unicode="&#xd6;" horiz-adv-x="832" 
d="M387 -12c-95.333 0 -172.5 29.333 -231.5 88s-88.5 132.667 -88.5 222c0 70 17.333 136.5 52 199.5s84.667 114.5 150 154.5s138.333 60 219 60c95.333 0 172.5 -29.333 231.5 -88s88.5 -132.667 88.5 -222c0 -70 -17.333 -136.5 -52 -199.5s-84.667 -114.5 -150 -154.5
s-138.333 -60 -219 -60zM405 130c70 0 128 27.5 174 82.5s69 114.833 69 179.5c0 53.333 -15.667 96.333 -47 129s-75 49 -131 49c-70 0 -128 -27.5 -174 -82.5s-69 -114.833 -69 -179.5c0 -53.333 15.667 -96.333 47 -129s75 -49 131 -49zM556 755l37 135h146l-37 -135
h-146zM342 755l37 135h146l-37 -135h-146z" />
    <glyph glyph-name="multiply" unicode="&#xd7;" horiz-adv-x="640" 
d="M586 125l-88 -88.999l-170 170l-168 -170l-88 89l169 169l-169 169l40.5 41l47.5 48l168 -170l170 170l48 -48c20.667 -20.667 34 -34.334 40 -41.001l-169 -169z" />
    <glyph glyph-name="Oslash" unicode="&#xd8;" horiz-adv-x="832" 
d="M387 -12c-79.333 0 -147.332 21.333 -203.999 64l-62 -57h-147l142 130c-32.667 50 -49 107.667 -49 173c0 70 17.333 136.5 52 199.5s84.667 114.5 150 154.5s138.333 60 219 60c83.333 0 153.666 -23.333 210.999 -70l68 63h147l-150 -138
c29.333 -47.333 44 -102.333 44 -165c0 -70 -17.333 -136.5 -52 -199.5s-84.667 -114.5 -150 -154.5s-138.333 -60 -219 -60zM236.001 226l346.999 319.001c-29.333 21.333 -66.666 32 -111.999 32c-71.333 0 -130.833 -28.333 -178.5 -85s-71.5 -118.334 -71.5 -185.001
c0 -30 5 -57 15 -81zM404 123.001c71.333 0 130.832 28.332 178.499 84.999s71.5 118.334 71.5 185.001c0 24.667 -3.66699 48.667 -11 72l-343 -316c28.667 -17.333 63.334 -26 104.001 -26z" />
    <glyph glyph-name="Ugrave" unicode="&#xd9;" horiz-adv-x="764" 
d="M343 -11c-81.333 0 -145.335 20.832 -192.002 62.499s-70 99.5 -70 173.5c0 34.667 5.66699 72 17 112l97 363h154l-101 -377c-7.33301 -25.333 -11 -50.666 -11 -75.999c0 -35.333 10.667 -63.5 32 -84.5s51.333 -31.5 90 -31.5c45.333 0 83.333 14.667 114 44
c30.667 30.667 53.334 74 68.001 130l106 395h154l-112 -417c-24 -90.667 -60 -160 -108 -208c-57.333 -57.333 -136.666 -86 -237.999 -86zM462.998 754.999l-95 120l134 57l65 -177h-104z" />
    <glyph glyph-name="Uacute" unicode="&#xda;" horiz-adv-x="764" 
d="M343 -11c-81.333 0 -145.335 20.832 -192.002 62.499s-70 99.5 -70 173.5c0 34.667 5.66699 72 17 112l97 363h154l-101 -377c-7.33301 -25.333 -11 -50.666 -11 -75.999c0 -35.333 10.667 -63.5 32 -84.5s51.333 -31.5 90 -31.5c45.333 0 83.333 14.667 114 44
c30.667 30.667 53.334 74 68.001 130l106 395h154l-112 -417c-24 -90.667 -60 -160 -108 -208c-57.333 -57.333 -136.666 -86 -237.999 -86zM417.998 754.999l161 177l128 -57l-161 -120h-128z" />
    <glyph glyph-name="Ucircumflex" unicode="&#xdb;" horiz-adv-x="764" 
d="M343 -11c-81.333 0 -145.335 20.832 -192.002 62.499s-70 99.5 -70 173.5c0 34.667 5.66699 72 17 112l97 363h154l-101 -377c-7.33301 -25.333 -11 -50.666 -11 -75.999c0 -35.333 10.667 -63.5 32 -84.5s51.333 -31.5 90 -31.5c45.333 0 83.333 14.667 114 44
c30.667 30.667 53.334 74 68.001 130l106 395h154l-112 -417c-24 -90.667 -60 -160 -108 -208c-57.333 -57.333 -136.666 -86 -237.999 -86zM302.998 754.999l165 157h144l81 -157h-110l-61 66l-97 -66h-122z" />
    <glyph glyph-name="Udieresis" unicode="&#xdc;" horiz-adv-x="764" 
d="M343 -11c-81.333 0 -145.335 20.832 -192.002 62.499s-70 99.5 -70 173.5c0 34.667 5.66699 72 17 112l97 363h154l-101 -377c-7.33301 -25.333 -11 -50.666 -11 -75.999c0 -35.333 10.667 -63.5 32 -84.5s51.333 -31.5 90 -31.5c45.333 0 83.333 14.667 114 44
c30.667 30.667 53.334 74 68.001 130l106 395h154l-112 -417c-24 -90.667 -60 -160 -108 -208c-57.333 -57.333 -136.666 -86 -237.999 -86zM544.998 754.999l37 135h146l-37 -135h-146zM330.998 754.999l37 135h146l-37 -135h-146z" />
    <glyph glyph-name="Yacute" unicode="&#xdd;" horiz-adv-x="650" 
d="M169 0l74 276l-145 424h171l82 -290l240 290h186l-383 -438l-71 -262h-154zM359 755l161 177l128 -57l-161 -120h-128z" />
    <glyph glyph-name="Thorn" unicode="&#xde;" horiz-adv-x="689" 
d="M12 0l188.001 700.001h154l-27 -102h68c99.333 0 172.666 -23.667 219.999 -71c36 -36 54 -84 54 -144c0 -84.667 -32 -151.334 -96 -200.001s-145.333 -73 -244 -73h-133l-30 -110h-154zM232.001 245.001l105 0.000976562c52 0 93.5 11.167 124.5 33.5
s46.5 52.833 46.5 91.5c0 23.333 -7.66699 42.666 -23 57.999c-20.667 20.667 -52.667 31 -96 31h-100z" />
    <glyph glyph-name="germandbls" unicode="&#xdf;" horiz-adv-x="632" 
d="M227 -2l32 117.999c58 -2 100 7 126 27s39 46.333 39 79c0 48 -38.333 76 -115 84l27 100c92 20.667 138 63 138 127c0 24 -7.5 42.667 -22.5 56s-33.833 20 -56.5 20c-56 0 -94.333 -38 -115 -114l-132 -495h-151l135 503c19.333 71.333 48.333 126.333 87 165
c46 46 106.333 69 181 69c67.333 0 120.333 -17.667 159 -53s58 -80.666 58 -135.999c0 -47.333 -13.5 -87.166 -40.5 -119.499s-64.833 -56.166 -113.5 -71.499c69.333 -30 104 -76.333 104 -139c0 -68.667 -28.333 -123.334 -85 -164.001s-141.667 -59.334 -255 -56.001z
" />
    <glyph glyph-name="agrave" unicode="&#xe0;" horiz-adv-x="588" 
d="M163 -10c-46 0 -83.498 13.499 -112.498 40.499s-43.5 61.5 -43.5 103.5c0 60 21.667 107.167 65 141.5s98.666 51.5 165.999 51.5c49.333 0 99.666 -8 150.999 -24l2 7c4 16 6 29.333 6 40c0 42 -33.667 63 -101 63c-48 0 -95.667 -9.66699 -143 -29l-24 120
c60.667 25.333 127 38 199 38c71.333 0 125.333 -14.167 162 -42.5s55 -69.166 55 -122.499c0 -23.333 -4 -50.333 -12 -81l-79 -296h-147l16 62c-44.667 -48 -98 -72 -160 -72zM228.002 93.999c30.667 0 58.667 10.5 84 31.5s42.333 46.5 51 76.5l4 14
c-32.667 12.667 -66 19 -100 19c-32 0 -58.167 -7.66699 -78.5 -23s-30.5 -35.666 -30.5 -60.999c0 -16.667 6.33301 -30.334 19 -41.001s29.667 -16 51 -16zM332.002 594.999l-95 120l134 57l65 -177h-104z" />
    <glyph glyph-name="aacute" unicode="&#xe1;" horiz-adv-x="588" 
d="M163 -10c-46 0 -83.498 13.499 -112.498 40.499s-43.5 61.5 -43.5 103.5c0 60 21.667 107.167 65 141.5s98.666 51.5 165.999 51.5c49.333 0 99.666 -8 150.999 -24l2 7c4 16 6 29.333 6 40c0 42 -33.667 63 -101 63c-48 0 -95.667 -9.66699 -143 -29l-24 120
c60.667 25.333 127 38 199 38c71.333 0 125.333 -14.167 162 -42.5s55 -69.166 55 -122.499c0 -23.333 -4 -50.333 -12 -81l-79 -296h-147l16 62c-44.667 -48 -98 -72 -160 -72zM228.002 93.999c30.667 0 58.667 10.5 84 31.5s42.333 46.5 51 76.5l4 14
c-32.667 12.667 -66 19 -100 19c-32 0 -58.167 -7.66699 -78.5 -23s-30.5 -35.666 -30.5 -60.999c0 -16.667 6.33301 -30.334 19 -41.001s29.667 -16 51 -16zM284.002 594.999l161 177l128 -57l-161 -120h-128z" />
    <glyph glyph-name="acircumflex" unicode="&#xe2;" horiz-adv-x="588" 
d="M163 -10c-46 0 -83.498 13.499 -112.498 40.499s-43.5 61.5 -43.5 103.5c0 60 21.667 107.167 65 141.5s98.666 51.5 165.999 51.5c49.333 0 99.666 -8 150.999 -24l2 7c4 16 6 29.333 6 40c0 42 -33.667 63 -101 63c-48 0 -95.667 -9.66699 -143 -29l-24 120
c60.667 25.333 127 38 199 38c71.333 0 125.333 -14.167 162 -42.5s55 -69.166 55 -122.499c0 -23.333 -4 -50.333 -12 -81l-79 -296h-147l16 62c-44.667 -48 -98 -72 -160 -72zM228.002 93.999c30.667 0 58.667 10.5 84 31.5s42.333 46.5 51 76.5l4 14
c-32.667 12.667 -66 19 -100 19c-32 0 -58.167 -7.66699 -78.5 -23s-30.5 -35.666 -30.5 -60.999c0 -16.667 6.33301 -30.334 19 -41.001s29.667 -16 51 -16zM179.002 594.999l165 157h144l81 -157h-110l-61 66l-97 -66h-122z" />
    <glyph glyph-name="atilde" unicode="&#xe3;" horiz-adv-x="588" 
d="M163 -10c-46 0 -83.498 13.499 -112.498 40.499s-43.5 61.5 -43.5 103.5c0 60 21.667 107.167 65 141.5s98.666 51.5 165.999 51.5c49.333 0 99.666 -8 150.999 -24l2 7c4 16 6 29.333 6 40c0 42 -33.667 63 -101 63c-48 0 -95.667 -9.66699 -143 -29l-24 120
c60.667 25.333 127 38 199 38c71.333 0 125.333 -14.167 162 -42.5s55 -69.166 55 -122.499c0 -23.333 -4 -50.333 -12 -81l-79 -296h-147l16 62c-44.667 -48 -98 -72 -160 -72zM228.002 93.999c30.667 0 58.667 10.5 84 31.5s42.333 46.5 51 76.5l4 14
c-32.667 12.667 -66 19 -100 19c-32 0 -58.167 -7.66699 -78.5 -23s-30.5 -35.666 -30.5 -60.999c0 -16.667 6.33301 -30.334 19 -41.001s29.667 -16 51 -16zM246.002 587.999l-80.001 40c18 40.667 40.333 73 67 97s55.334 36 86.001 36c26.667 0 53 -9.66699 79 -29
c24 -17.333 41.667 -26 53 -26c24.667 0 48 19.667 70 59l80 -40c-18 -40.667 -40.333 -73 -67 -97s-55.334 -36 -86.001 -36c-25.333 0 -51.666 9.66699 -78.999 29c-24 17.333 -41.667 26 -53 26c-24.667 0 -48 -19.667 -70 -59z" />
    <glyph glyph-name="adieresis" unicode="&#xe4;" horiz-adv-x="588" 
d="M163 -10c-46 0 -83.498 13.499 -112.498 40.499s-43.5 61.5 -43.5 103.5c0 60 21.667 107.167 65 141.5s98.666 51.5 165.999 51.5c49.333 0 99.666 -8 150.999 -24l2 7c4 16 6 29.333 6 40c0 42 -33.667 63 -101 63c-48 0 -95.667 -9.66699 -143 -29l-24 120
c60.667 25.333 127 38 199 38c71.333 0 125.333 -14.167 162 -42.5s55 -69.166 55 -122.499c0 -23.333 -4 -50.333 -12 -81l-79 -296h-147l16 62c-44.667 -48 -98 -72 -160 -72zM228.002 93.999c30.667 0 58.667 10.5 84 31.5s42.333 46.5 51 76.5l4 14
c-32.667 12.667 -66 19 -100 19c-32 0 -58.167 -7.66699 -78.5 -23s-30.5 -35.666 -30.5 -60.999c0 -16.667 6.33301 -30.334 19 -41.001s29.667 -16 51 -16zM409.002 594.999l37 135h146l-37 -135h-146zM195.002 594.999l37 135h146l-37 -135h-146z" />
    <glyph glyph-name="aring" unicode="&#xe5;" horiz-adv-x="588" 
d="M163 -10c-46 0 -83.498 13.499 -112.498 40.499s-43.5 61.5 -43.5 103.5c0 60 21.667 107.167 65 141.5s98.666 51.5 165.999 51.5c49.333 0 99.666 -8 150.999 -24l2 7c4 16 6 29.333 6 40c0 42 -33.667 63 -101 63c-48 0 -95.667 -9.66699 -143 -29l-24 120
c60.667 25.333 127 38 199 38c71.333 0 125.333 -14.167 162 -42.5s55 -69.166 55 -122.499c0 -23.333 -4 -50.333 -12 -81l-79 -296h-147l16 62c-44.667 -48 -98 -72 -160 -72zM228.002 93.999c30.667 0 58.667 10.5 84 31.5s42.333 46.5 51 76.5l4 14
c-32.667 12.667 -66 19 -100 19c-32 0 -58.167 -7.66699 -78.5 -23s-30.5 -35.666 -30.5 -60.999c0 -16.667 6.33301 -30.334 19 -41.001s29.667 -16 51 -16zM391.002 592.999c-33.333 0 -60 9.83301 -80 29.5s-30 44.5 -30 74.5c0 36.667 13 68.167 39 94.5
s57.667 39.5 95 39.5c33.333 0 60 -9.83301 80 -29.5s30 -44.5 30 -74.5c0 -36.667 -13 -68.167 -39 -94.5s-57.667 -39.5 -95 -39.5zM393.002 647.999c20 0 36.333 7.83301 49 23.5s19 33.834 19 54.501c0 14.667 -4.33301 26.667 -13 36s-20.334 14 -35.001 14
c-20 0 -36.333 -7.83301 -49 -23.5s-19 -33.834 -19 -54.501c0 -14.667 4.33301 -26.667 13 -36s20.334 -14 35.001 -14z" />
    <glyph glyph-name="ae" unicode="&#xe6;" horiz-adv-x="940" 
d="M418 91c-65.333 -67.333 -145.331 -101 -239.998 -101c-54 0 -96 13 -126 39s-45 61 -45 105c0 60 21.667 107.167 65 141.5s98.666 51.5 165.999 51.5c49.333 0 99.666 -8 150.999 -24l2 7c4 16 6 29.333 6 40c0 42 -33.667 63 -101 63c-48 0 -95.667 -9.66699 -143 -29
l-24 120c60.667 25.333 127 38 199 38c87.333 0 146 -26.333 176 -79c55.333 55.333 119.666 83 192.999 83c65.333 0 117.333 -19.667 156 -59s58 -89.333 58 -150c0 -38 -9 -78.667 -27 -122h-367c5.33301 -70 46 -105 122 -105c38.667 0 78.334 14.333 119.001 43l70 -94
c-52 -47.333 -120.667 -71 -206 -71c-96 0 -164 34.333 -204 103zM530.002 310l233.001 0.000976562c3.33301 11.333 5 23 5 35c0 23.333 -7.33301 42.333 -22 57s-36.667 22 -66 22c-34 0 -64.333 -10.333 -91 -31s-46.334 -48.334 -59.001 -83.001zM386.003 208.001
c-40.667 18 -80.332 26.998 -118.999 26.998c-32 0 -58.167 -7.66699 -78.5 -23s-30.5 -35.666 -30.5 -60.999c0 -17.333 6.83301 -31.166 20.5 -41.499s33.5 -15.5 59.5 -15.5c24.667 0 51.167 6 79.5 18s53.166 28.667 74.499 50c-2.66699 14 -4.66699 29.333 -6 46z" />
    <glyph glyph-name="ccedilla" unicode="&#xe7;" horiz-adv-x="560" 
d="M296 -12l-107.997 -161l-113 53l119 124c-47.333 17.333 -84.5 45.833 -111.5 85.5s-40.5 86.5 -40.5 140.5c0 87.333 31.167 161.833 93.5 223.5s136.5 92.5 222.5 92.5c101.333 0 174.666 -39.333 219.999 -118l-116 -82c-15.333 23.333 -31.5 40.833 -48.5 52.5
s-39.5 17.5 -67.5 17.5c-40 0 -75.667 -18.667 -107 -56s-47 -80.666 -47 -129.999c0 -34 10 -61.333 30 -82s45 -31 75 -31c39.333 0 79.666 17.667 120.999 53l78 -99c-30.667 -27.333 -61.334 -47.833 -92.001 -61.5s-66.667 -20.834 -108 -21.501z" />
    <glyph glyph-name="egrave" unicode="&#xe8;" horiz-adv-x="607" 
d="M184 215c5.33301 -70 45.999 -105 121.999 -105c38.667 0 78.334 14.333 119.001 43l70 -94c-56.667 -47.333 -125.334 -71 -206.001 -71c-77.333 0 -138 21.167 -182 63.5s-66 100.5 -66 174.5c0 52.667 12.833 103.167 38.5 151.5s63.334 88.5 113.001 120.5
s105.167 48 166.5 48c68 0 121.5 -19.5 160.5 -58.5s58.5 -89.167 58.5 -150.5c0 -38 -9 -78.667 -27 -122h-367zM196.999 310l233.001 0.000976562c3.33301 11.333 5 23 5 35c0 23.333 -7.33301 42.333 -22 57s-36.667 22 -66 22c-34 0 -64.333 -10.333 -91 -31
s-46.334 -48.334 -59.001 -83.001zM339 595.001l-95 120l134 57l65 -177h-104z" />
    <glyph glyph-name="eacute" unicode="&#xe9;" horiz-adv-x="607" 
d="M184 215c5.33301 -70 45.999 -105 121.999 -105c38.667 0 78.334 14.333 119.001 43l70 -94c-56.667 -47.333 -125.334 -71 -206.001 -71c-77.333 0 -138 21.167 -182 63.5s-66 100.5 -66 174.5c0 52.667 12.833 103.167 38.5 151.5s63.334 88.5 113.001 120.5
s105.167 48 166.5 48c68 0 121.5 -19.5 160.5 -58.5s58.5 -89.167 58.5 -150.5c0 -38 -9 -78.667 -27 -122h-367zM196.999 310l233.001 0.000976562c3.33301 11.333 5 23 5 35c0 23.333 -7.33301 42.333 -22 57s-36.667 22 -66 22c-34 0 -64.333 -10.333 -91 -31
s-46.334 -48.334 -59.001 -83.001zM286 595.001l161 177l128 -57l-161 -120h-128z" />
    <glyph glyph-name="ecircumflex" unicode="&#xea;" horiz-adv-x="607" 
d="M184 215c5.33301 -70 45.999 -105 121.999 -105c38.667 0 78.334 14.333 119.001 43l70 -94c-56.667 -47.333 -125.334 -71 -206.001 -71c-77.333 0 -138 21.167 -182 63.5s-66 100.5 -66 174.5c0 52.667 12.833 103.167 38.5 151.5s63.334 88.5 113.001 120.5
s105.167 48 166.5 48c68 0 121.5 -19.5 160.5 -58.5s58.5 -89.167 58.5 -150.5c0 -38 -9 -78.667 -27 -122h-367zM196.999 310l233.001 0.000976562c3.33301 11.333 5 23 5 35c0 23.333 -7.33301 42.333 -22 57s-36.667 22 -66 22c-34 0 -64.333 -10.333 -91 -31
s-46.334 -48.334 -59.001 -83.001zM183 595.001l165 157h144l81 -157h-110l-61 66l-97 -66h-122z" />
    <glyph glyph-name="edieresis" unicode="&#xeb;" horiz-adv-x="607" 
d="M184 215c5.33301 -70 45.999 -105 121.999 -105c38.667 0 78.334 14.333 119.001 43l70 -94c-56.667 -47.333 -125.334 -71 -206.001 -71c-77.333 0 -138 21.167 -182 63.5s-66 100.5 -66 174.5c0 52.667 12.833 103.167 38.5 151.5s63.334 88.5 113.001 120.5
s105.167 48 166.5 48c68 0 121.5 -19.5 160.5 -58.5s58.5 -89.167 58.5 -150.5c0 -38 -9 -78.667 -27 -122h-367zM196.999 310l233.001 0.000976562c3.33301 11.333 5 23 5 35c0 23.333 -7.33301 42.333 -22 57s-36.667 22 -66 22c-34 0 -64.333 -10.333 -91 -31
s-46.334 -48.334 -59.001 -83.001zM416 595.001l37 135h146l-37 -135h-146zM202 595.001l37 135h146l-37 -135h-146z" />
    <glyph glyph-name="igrave" unicode="&#xec;" horiz-adv-x="302" 
d="M3 0l144 536h152l-144 -536h-152zM206 595l-95 120l134 57l65 -177h-104z" />
    <glyph glyph-name="iacute" unicode="&#xed;" horiz-adv-x="302" 
d="M3 0l144 536h152l-144 -536h-152zM148 595l161 177l128 -57l-161 -120h-128z" />
    <glyph glyph-name="icircumflex" unicode="&#xee;" horiz-adv-x="302" 
d="M3 0l144 536h152l-144 -536h-152zM37 595l165 157h144l81 -157h-110l-61 66l-97 -66h-122z" />
    <glyph glyph-name="idieresis" unicode="&#xef;" horiz-adv-x="302" 
d="M3 0l144 536h152l-144 -536h-152zM270 595l37 135h146l-37 -135h-146zM56 595l37 135h146l-37 -135h-146z" />
    <glyph glyph-name="eth" unicode="&#xf0;" horiz-adv-x="638" 
d="M286 -12c-74 0 -133.833 21.667 -179.5 65s-68.5 100 -68.5 170c0 72.667 25.667 134.667 77 186s113 77 185 77c58 0 108.333 -19.667 151 -59l-67 145l-135 -49l-36 75l137 50l-38 82h150l16 -35l118 43l35 -75l-120 -44l38 -86c29.333 -66.667 44 -135 44 -205
c0 -97.333 -27.667 -178.333 -83 -243s-130 -97 -224 -97zM295 116c41.333 0 75.667 15 103 45s41 64.333 41 103c0 34 -10.333 61.5 -31 82.5s-48 31.5 -82 31.5c-40.667 0 -74.667 -14.333 -102 -43s-41 -63 -41 -103c0 -36 10.5 -64.333 31.5 -85s47.833 -31 80.5 -31z
" />
    <glyph glyph-name="ntilde" unicode="&#xf1;" horiz-adv-x="619" 
d="M-3 0l143.001 536h152l-15 -56c49.333 44 98 66 146 66s86.333 -14 115 -42s43 -66 43 -114c0 -22.667 -6 -56.667 -18 -102l-77 -288h-152l79 294c4.66699 17.333 7 33.333 7 48c0 44 -24.667 66 -74 66c-29.333 0 -53.833 -9.5 -73.5 -28.5
s-33.834 -45.167 -42.501 -78.5l-81 -301h-152zM262.001 588l-80.001 40c18 40.667 40.333 73 67 97s55.334 36 86.001 36c26.667 0 53 -9.66699 79 -29c24 -17.333 41.667 -26 53 -26c24.667 0 48 19.667 70 59l80 -40c-18 -40.667 -40.333 -73 -67 -97
s-55.334 -36 -86.001 -36c-25.333 0 -51.666 9.66699 -78.999 29c-24 17.333 -41.667 26 -53 26c-24.667 0 -48 -19.667 -70 -59z" />
    <glyph glyph-name="ograve" unicode="&#xf2;" horiz-adv-x="652" 
d="M300 -12c-78 0 -140.5 23.167 -187.5 69.5s-70.5 105.833 -70.5 178.5c0 81.333 30.5 153.333 91.5 216s133.833 94 218.5 94c78 0 140.5 -23.167 187.5 -69.5s70.5 -105.833 70.5 -178.5c0 -81.333 -30.5 -153.333 -91.5 -216s-133.833 -94 -218.5 -94zM307 118
c44 0 80.667 19 110 57s44 77.667 44 119c0 38.667 -10.5 68.667 -31.5 90s-49.167 32 -84.5 32c-44 0 -80.667 -19 -110 -57s-44 -77.667 -44 -119c0 -38.667 10.5 -68.667 31.5 -90s49.167 -32 84.5 -32zM350 595l-95 120l134 57l65 -177h-104z" />
    <glyph glyph-name="oacute" unicode="&#xf3;" horiz-adv-x="652" 
d="M300 -12c-78 0 -140.5 23.167 -187.5 69.5s-70.5 105.833 -70.5 178.5c0 81.333 30.5 153.333 91.5 216s133.833 94 218.5 94c78 0 140.5 -23.167 187.5 -69.5s70.5 -105.833 70.5 -178.5c0 -81.333 -30.5 -153.333 -91.5 -216s-133.833 -94 -218.5 -94zM307 118
c44 0 80.667 19 110 57s44 77.667 44 119c0 38.667 -10.5 68.667 -31.5 90s-49.167 32 -84.5 32c-44 0 -80.667 -19 -110 -57s-44 -77.667 -44 -119c0 -38.667 10.5 -68.667 31.5 -90s49.167 -32 84.5 -32zM287 595l161 177l128 -57l-161 -120h-128z" />
    <glyph glyph-name="ocircumflex" unicode="&#xf4;" horiz-adv-x="652" 
d="M300 -12c-78 0 -140.5 23.167 -187.5 69.5s-70.5 105.833 -70.5 178.5c0 81.333 30.5 153.333 91.5 216s133.833 94 218.5 94c78 0 140.5 -23.167 187.5 -69.5s70.5 -105.833 70.5 -178.5c0 -81.333 -30.5 -153.333 -91.5 -216s-133.833 -94 -218.5 -94zM307 118
c44 0 80.667 19 110 57s44 77.667 44 119c0 38.667 -10.5 68.667 -31.5 90s-49.167 32 -84.5 32c-44 0 -80.667 -19 -110 -57s-44 -77.667 -44 -119c0 -38.667 10.5 -68.667 31.5 -90s49.167 -32 84.5 -32zM188 595l165 157h144l81 -157h-110l-61 66l-97 -66h-122z" />
    <glyph glyph-name="otilde" unicode="&#xf5;" horiz-adv-x="652" 
d="M300 -12c-78 0 -140.5 23.167 -187.5 69.5s-70.5 105.833 -70.5 178.5c0 81.333 30.5 153.333 91.5 216s133.833 94 218.5 94c78 0 140.5 -23.167 187.5 -69.5s70.5 -105.833 70.5 -178.5c0 -81.333 -30.5 -153.333 -91.5 -216s-133.833 -94 -218.5 -94zM307 118
c44 0 80.667 19 110 57s44 77.667 44 119c0 38.667 -10.5 68.667 -31.5 90s-49.167 32 -84.5 32c-44 0 -80.667 -19 -110 -57s-44 -77.667 -44 -119c0 -38.667 10.5 -68.667 31.5 -90s49.167 -32 84.5 -32zM255 588l-80.001 40c18 40.667 40.333 73 67 97
s55.334 36 86.001 36c26.667 0 53 -9.66699 79 -29c24 -17.333 41.667 -26 53 -26c24.667 0 48 19.667 70 59l80 -40c-18 -40.667 -40.333 -73 -67 -97s-55.334 -36 -86.001 -36c-25.333 0 -51.666 9.66699 -78.999 29c-24 17.333 -41.667 26 -53 26
c-24.667 0 -48 -19.667 -70 -59z" />
    <glyph glyph-name="odieresis" unicode="&#xf6;" horiz-adv-x="652" 
d="M300 -12c-78 0 -140.5 23.167 -187.5 69.5s-70.5 105.833 -70.5 178.5c0 81.333 30.5 153.333 91.5 216s133.833 94 218.5 94c78 0 140.5 -23.167 187.5 -69.5s70.5 -105.833 70.5 -178.5c0 -81.333 -30.5 -153.333 -91.5 -216s-133.833 -94 -218.5 -94zM307 118
c44 0 80.667 19 110 57s44 77.667 44 119c0 38.667 -10.5 68.667 -31.5 90s-49.167 32 -84.5 32c-44 0 -80.667 -19 -110 -57s-44 -77.667 -44 -119c0 -38.667 10.5 -68.667 31.5 -90s49.167 -32 84.5 -32zM420 595l37 135h146l-37 -135h-146zM206 595l37 135h146l-37 -135
h-146z" />
    <glyph glyph-name="divide" unicode="&#xf7;" horiz-adv-x="640" 
d="M193 61l41 149h146l-40 -149h-147zM88 287l37 135h480l-36 -135h-481zM311 498l40 150h146l-40 -150h-146z" />
    <glyph glyph-name="oslash" unicode="&#xf8;" horiz-adv-x="652" 
d="M300 -12c-66.667 0 -123 17.667 -169 53l-51 -46h-133l126 114c-20.667 38 -31 80.333 -31 127c0 81.333 30.5 153.333 91.5 216s133.833 94 218.5 94c65.333 0 120 -16.667 164 -50l49 45h133l-122 -111c22.667 -38 34 -82 34 -132c0 -81.333 -30.5 -153.333 -91.5 -216
s-133.833 -94 -218.5 -94zM189 205l222.001 202c-16.667 9.33301 -37.334 14 -62.001 14c-47.333 0 -86.333 -19.333 -117 -58s-46 -79.667 -46 -123c0 -12 1 -23.667 3 -35zM303.001 113c47.333 0 86.333 19.333 117 58s46 79.667 46 123c0 17.333 -1.33301 31.333 -4 42
l-226 -206c18.667 -11.333 41 -17 67 -17z" />
    <glyph glyph-name="ugrave" unicode="&#xf9;" horiz-adv-x="622" 
d="M199 -10c-48 0 -86.334 14 -115.001 42s-43 66 -43 114c0 22.667 6 56.667 18 102l77 288h152l-79 -294c-4.66699 -17.333 -7 -33.333 -7 -48c0 -44 24.667 -66 74 -66c29.333 0 53.833 9.5 73.5 28.5s33.834 45.167 42.501 78.5l81 301h152l-143 -536h-152l15 56
c-49.333 -44 -98 -66 -146 -66zM367.999 595l-95 120l134 57l65 -177h-104z" />
    <glyph glyph-name="uacute" unicode="&#xfa;" horiz-adv-x="622" 
d="M199 -10c-48 0 -86.334 14 -115.001 42s-43 66 -43 114c0 22.667 6 56.667 18 102l77 288h152l-79 -294c-4.66699 -17.333 -7 -33.333 -7 -48c0 -44 24.667 -66 74 -66c29.333 0 53.833 9.5 73.5 28.5s33.834 45.167 42.501 78.5l81 301h152l-143 -536h-152l15 56
c-49.333 -44 -98 -66 -146 -66zM298.999 595l161 177l128 -57l-161 -120h-128z" />
    <glyph glyph-name="ucircumflex" unicode="&#xfb;" horiz-adv-x="622" 
d="M199 -10c-48 0 -86.334 14 -115.001 42s-43 66 -43 114c0 22.667 6 56.667 18 102l77 288h152l-79 -294c-4.66699 -17.333 -7 -33.333 -7 -48c0 -44 24.667 -66 74 -66c29.333 0 53.833 9.5 73.5 28.5s33.834 45.167 42.501 78.5l81 301h152l-143 -536h-152l15 56
c-49.333 -44 -98 -66 -146 -66zM194.999 595l165 157h144l81 -157h-110l-61 66l-97 -66h-122z" />
    <glyph glyph-name="udieresis" unicode="&#xfc;" horiz-adv-x="622" 
d="M199 -10c-48 0 -86.334 14 -115.001 42s-43 66 -43 114c0 22.667 6 56.667 18 102l77 288h152l-79 -294c-4.66699 -17.333 -7 -33.333 -7 -48c0 -44 24.667 -66 74 -66c29.333 0 53.833 9.5 73.5 28.5s33.834 45.167 42.501 78.5l81 301h152l-143 -536h-152l15 56
c-49.333 -44 -98 -66 -146 -66zM427.999 595l37 135h146l-37 -135h-146zM213.999 595l37 135h146l-37 -135h-146z" />
    <glyph glyph-name="yacute" unicode="&#xfd;" horiz-adv-x="592" 
d="M85 -163c-48 0 -89.6699 12.334 -125.003 37.001l81 110c18.667 -14 38.334 -21 59.001 -21c22 0 41.667 11 59 33l-66 540h155l25 -364l201 364h164l-332 -549c-35.333 -54.667 -69.666 -93.334 -102.999 -116.001s-72.666 -34 -117.999 -34zM294.997 595.001l161 177
l128 -57l-161 -120h-128z" />
    <glyph glyph-name="thorn" unicode="&#xfe;" horiz-adv-x="674" 
d="M-46 -160l238 890h152l-68 -252c48.667 45.333 99 68 151 68c60 0 109.333 -20.667 148 -62s58 -97.333 58 -168c0 -92.667 -29.833 -170.167 -89.5 -232.5s-128.5 -93.5 -206.5 -93.5c-73.333 0 -129.333 29.333 -168 88l-63 -238h-152zM317 118
c42 0 79.001 18.168 111.001 54.501s48 80.833 48 133.5c0 34.667 -10.167 62 -30.5 82s-47.5 30 -81.5 30c-42.667 0 -80.334 -18.333 -113.001 -55s-49 -80.334 -49 -131.001c0 -34 10.667 -61.5 32 -82.5s49 -31.5 83 -31.5z" />
    <glyph glyph-name="ydieresis" unicode="&#xff;" horiz-adv-x="592" 
d="M85 -163c-48 0 -89.6699 12.334 -125.003 37.001l81 110c18.667 -14 38.334 -21 59.001 -21c22 0 41.667 11 59 33l-66 540h155l25 -364l201 364h164l-332 -549c-35.333 -54.667 -69.666 -93.334 -102.999 -116.001s-72.666 -34 -117.999 -34zM402.997 595.001l37 135
h146l-37 -135h-146zM188.997 595.001l37 135h146l-37 -135h-146z" />
    <glyph glyph-name="dotlessi" unicode="&#x131;" horiz-adv-x="302" 
d="M3 0l144 536h152l-144 -536h-152z" />
    <glyph glyph-name="Lslash" unicode="&#x141;" horiz-adv-x="657" 
d="M43 0l70 262l-81 -22l39 143l81 22l79 295h149l-67 -250l210 58l-38 -143l-210 -58l-45 -167h354l-38 -140h-503z" />
    <glyph glyph-name="lslash" unicode="&#x142;" horiz-adv-x="359" 
d="M34 0l75 279l-81 -22l38 143l81 22l83 308h152l-71 -262l81 22l-38 -143l-81 -22l-87 -325h-152z" />
    <glyph glyph-name="OE" unicode="&#x152;" horiz-adv-x="1071" 
d="M417 0c-122.667 0 -215.667 31.667 -279 95c-47.333 47.333 -71 114 -71 200c0 107.333 38.333 199.333 115 276c86 86 208.333 129 367 129h580l-37 -137h-350l-38 -143h305l-37 -135h-305l-40 -148h356l-37 -137h-529zM429 139h45l114 422h-57
c-99.333 0 -177.333 -28.333 -234 -85c-46.667 -46.667 -70 -105 -70 -175c0 -46.667 13.667 -83.667 41 -111c34 -34 87.667 -51 161 -51z" />
    <glyph glyph-name="oe" unicode="&#x153;" horiz-adv-x="1028" 
d="M605 215c5.33301 -70 45.999 -105 121.999 -105c38.667 0 78.334 14.333 119.001 43l70 -94c-52 -47.333 -120.667 -71 -206 -71c-95.333 0 -161.666 32.667 -198.999 98c-55.333 -65.333 -125.333 -98 -210 -98c-78.667 0 -141.5 23.167 -188.5 69.5
s-70.5 105.833 -70.5 178.5c0 82.667 30.167 155 90.5 217s133.166 93 218.499 93c98.667 0 167.667 -35.333 207 -106c57.333 70.667 131.333 106 222 106c68 0 121.5 -19.5 160.5 -58.5s58.5 -89.167 58.5 -150.5c0 -38 -9 -78.667 -27 -122h-367zM617.999 310
l233.001 0.000976562c3.33301 11.333 5 23 5 35c0 23.333 -7.33301 42.333 -22 57s-36.667 22 -66 22c-34 0 -64.333 -10.333 -91 -31s-46.334 -48.334 -59.001 -83.001zM306 118.001c45.333 0 82.5 18 111.5 54s43.5 76.333 43.5 121c0 36.667 -10.5 66.334 -31.5 89.001
s-48.833 34 -83.5 34c-45.333 0 -82.5 -18 -111.5 -54s-43.5 -76.333 -43.5 -121c0 -36.667 10.5 -66.334 31.5 -89.001s48.833 -34 83.5 -34z" />
    <glyph glyph-name="Scaron" unicode="&#x160;" horiz-adv-x="636" 
d="M295 -10c-136.667 0 -238.332 42.998 -304.999 128.998l116 98c56 -61.333 121.333 -92 196 -92c31.333 0 57 6.66699 77 20s30 31 30 53c0 17.333 -8.16699 32.333 -24.5 45s-47.833 28.334 -94.5 47.001c-54 22 -96.167 47.333 -126.5 76s-45.5 66.334 -45.5 113.001
c0 69.333 27 125.166 81 167.499s119.667 63.5 197 63.5c110 0 197.333 -34.667 262 -104l-106 -106c-28 26 -54.833 45 -80.5 57s-54.834 18 -87.501 18c-30.667 0 -55.334 -7.16699 -74.001 -21.5s-28 -30.833 -28 -49.5c0 -18 8 -32.667 24 -44s49 -27.333 99 -48
c54.667 -22 96.334 -47.167 125.001 -75.5s43 -66.166 43 -113.499c0 -70.667 -27.167 -127.167 -81.5 -169.5s-119.833 -63.5 -196.5 -63.5zM358.002 754.998l-81 157h110l61 -66l97 66h122l-165 -157h-144z" />
    <glyph glyph-name="scaron" unicode="&#x161;" 
d="M217 -12c-43.333 0 -86.832 8.33203 -130.499 24.999s-80.5 40.667 -110.5 72l88 91c48 -48 102.667 -72 164 -72c42.667 0 64 15.667 64 47c0 15.333 -20.667 32 -62 50c-25.333 10.667 -45.5 20 -60.5 28s-30.833 18.333 -47.5 31s-28.834 27 -36.501 43
s-11.5 34.333 -11.5 55c0 54.667 19.5 99.667 58.5 135s91.167 53 156.5 53c40.667 0 80 -7.5 118 -22.5s69 -33.167 93 -54.5l-82 -96c-48 38 -94.667 57 -140 57c-18.667 0 -33.167 -4 -43.5 -12s-15.5 -19 -15.5 -33c0 -10 5.66699 -19 17 -27s29.333 -17.667 54 -29
c22 -10 39.833 -18.667 53.5 -26s28.667 -17.166 45 -29.499s28.5 -26.5 36.5 -42.5s12 -34 12 -54c0 -58 -20.5 -104 -61.5 -138s-93.833 -51 -158.5 -51zM262.001 594.999l-81 157h110l61 -66l97 66h122l-165 -157h-144z" />
    <glyph glyph-name="Ydieresis" unicode="&#x178;" horiz-adv-x="650" 
d="M169 0l74 276l-145 424h171l82 -290l240 290h186l-383 -438l-71 -262h-154zM471 755l37 135h146l-37 -135h-146zM257 755l37 135h146l-37 -135h-146z" />
    <glyph glyph-name="Zcaron" unicode="&#x17d;" horiz-adv-x="689" 
d="M-19 0l31 117l492 448h-360l37 135h568l-32 -117l-492 -448h375l-36 -135h-583zM391 755l-81 157h110l61 -66l97 66h122l-165 -157h-144z" />
    <glyph glyph-name="zcaron" unicode="&#x17e;" horiz-adv-x="557" 
d="M-27 0l29 107l351 306h-260l33 123h454l-29 -107l-352 -306h273l-33 -123h-466zM280 595l-81 157h110l61 -66l97 66h122l-165 -157h-144z" />
    <glyph glyph-name="florin" unicode="&#x192;" horiz-adv-x="543" 
d="M61 -9c-32.667 0 -62.667 3 -90 9l33 122c16 -4 31.667 -6 47 -6c30.667 0 55.334 20.667 74.001 62l74 166h-72l34 125h94l38 86c44.667 102.667 112.667 154 204 154c49.333 0 90 -6.66699 122 -20l-33 -124c-23.333 10.667 -49.333 16 -78 16
c-36.667 0 -65.334 -23.333 -86.001 -70l-19 -42h120l-34 -125h-142l-94 -212c-41.333 -94 -105.333 -141 -192 -141z" />
    <glyph glyph-name="circumflex" unicode="&#x2c6;" 
d="M143 595l165 157h144l81 -157h-110l-61 66l-97 -66h-122z" />
    <glyph glyph-name="caron" unicode="&#x2c7;" 
d="M262 595l-81 157h110l61 -66l97 66h122l-165 -157h-144z" />
    <glyph glyph-name="breve" unicode="&#x2d8;" 
d="M359 593c-55.333 0 -97.5 15.001 -126.5 45.001s-43.5 66.333 -43.5 109v5h104c1.33301 -16.667 8.83301 -30.834 22.5 -42.501s31.834 -17.5 54.501 -17.5c34.667 0 65.667 20 93 60h105c-15.333 -48 -42.333 -86.5 -81 -115.5s-81.334 -43.5 -128.001 -43.5z" />
    <glyph glyph-name="dotaccent" unicode="&#x2d9;" 
d="M264 595l37 135h150l-37 -135h-150z" />
    <glyph glyph-name="ring" unicode="&#x2da;" 
d="M357 593c-33.333 0 -60 9.83301 -80 29.5s-30 44.5 -30 74.5c0 36.667 13 68.167 39 94.5s57.667 39.5 95 39.5c33.333 0 60 -9.83301 80 -29.5s30 -44.5 30 -74.5c0 -36.667 -13 -68.167 -39 -94.5s-57.667 -39.5 -95 -39.5zM359 648c20 0 36.333 7.83301 49 23.5
s19 33.834 19 54.501c0 14.667 -4.33301 26.667 -13 36s-20.334 14 -35.001 14c-20 0 -36.333 -7.83301 -49 -23.5s-19 -33.834 -19 -54.501c0 -14.667 4.33301 -26.667 13 -36s20.334 -14 35.001 -14z" />
    <glyph glyph-name="ogonek" unicode="&#x2db;" 
d="M232 -164c-56.667 -4.66699 -100 0.00195312 -130 14.002s-45 36 -45 66c0 27.333 12.667 58.666 38 93.999h104c-13.333 -23.333 -20 -43.333 -20 -60c0 -28.667 23.667 -44.334 71 -47.001z" />
    <glyph glyph-name="tilde" unicode="&#x2dc;" 
d="M220 588l-80.001 40c18 40.667 40.333 73 67 97s55.334 36 86.001 36c26.667 0 53 -9.66699 79 -29c24 -17.333 41.667 -26 53 -26c24.667 0 48 19.667 70 59l80 -40c-18 -40.667 -40.333 -73 -67 -97s-55.334 -36 -86.001 -36c-25.333 0 -51.666 9.66699 -78.999 29
c-24 17.333 -41.667 26 -53 26c-24.667 0 -48 -19.667 -70 -59z" />
    <glyph glyph-name="hungarumlaut" unicode="&#x2dd;" 
d="M318 595l161 177l113 -57l-163 -120h-111zM123 595l159 177l113 -57l-161 -120h-111z" />
    <glyph glyph-name="Omega" unicode="&#x3a9;" horiz-adv-x="782" 
d="M654 0h-285.001l60 223c58 8 105.833 35.5 143.5 82.5s56.5 97.5 56.5 151.5c0 39.333 -13.333 71.666 -40 96.999s-62.667 38 -108 38c-67.333 0 -124.666 -24 -171.999 -72s-71 -104.333 -71 -169c0 -32 8.66699 -60.167 26 -84.5s42 -38.833 74 -43.5l-59 -223h-284
l31 117h179l11 39c-39.333 11.333 -69.5 35.5 -90.5 72.5s-31.5 78.167 -31.5 123.5c0 74 20.333 139 61 195s91.5 97.333 152.5 124s126.5 40 196.5 40c78 0 143 -22.167 195 -66.5s78 -100.5 78 -168.5c0 -70 -24.5 -136.667 -73.5 -200s-111.167 -103.333 -186.5 -120
l-11 -39h179c-3.33301 -12 -8.33301 -31.167 -15 -57.5s-12 -46.166 -16 -59.499z" />
    <glyph glyph-name="pi" unicode="&#x3c0;" 
d="M0 0v700h500v-700h-500zM81 49h340l-171 255zM50 95l170 254l-170 256v-510zM451 95v510l-172 -256zM250 395l171 255h-340z" />
    <glyph glyph-name="afii10023" unicode="&#x401;" horiz-adv-x="665" 
d="M12 0l188 700h523l-37 -137h-370l-38 -143h325l-37 -135h-325l-40 -148h376l-37 -137h-528zM507 755l37 135h146l-37 -135h-146zM293 755l37 135h146l-37 -135h-146z" />
    <glyph glyph-name="afii10051" unicode="&#x402;" horiz-adv-x="848" 
d="M488 -52c-51.333 0 -93.667 6.66602 -127 19.999l49 129c14 -4.66699 31.667 -7 53 -7c45.333 0 81.666 12.167 108.999 36.5s41 57.5 41 99.5c0 24.667 -8.83301 45.5 -26.5 62.5s-41.5 25.5 -71.5 25.5c-60 0 -113.667 -18 -161 -54l-70 -260h-154l152 563h-191l37 137
h583l-36 -137h-240l-44 -163c67.333 37.333 134 56 200 56c56 0 101.833 -18.667 137.5 -56s53.5 -84.666 53.5 -141.999c0 -87.333 -28.167 -160.833 -84.5 -220.5s-126.166 -89.5 -209.499 -89.5z" />
    <glyph glyph-name="afii10052" unicode="&#x403;" horiz-adv-x="576" 
d="M13 0l187 700h470l-36 -137h-316l-152 -563h-153zM344 755l161 177l128 -57l-161 -120h-128z" />
    <glyph glyph-name="afii10053" unicode="&#x404;" horiz-adv-x="726" 
d="M247 417l265.998 -0.00195312l-31 -128h-255c3.33301 -46 19.833 -85.167 49.5 -117.5s69.167 -48.5 118.5 -48.5c66.667 0 126.667 26.667 180 80l88 -100c-75.333 -76.667 -165.666 -115 -270.999 -115c-96.667 0 -175 27.167 -235 81.5s-90 128.5 -90 222.5
c0 71.333 17.167 138.833 51.5 202.5s83.833 115.834 148.5 156.501s137 61 217 61c63.333 0 119.833 -13.167 169.5 -39.5s86.5 -62.166 110.5 -107.499l-124 -86c-38 64 -92 96 -162 96c-53.333 0 -100.166 -14.667 -140.499 -44s-70.5 -67.333 -90.5 -114z" />
    <glyph glyph-name="afii10054" unicode="&#x405;" horiz-adv-x="636" 
d="M295 -10c-136.667 0 -238.332 42.998 -304.999 128.998l116 98c56 -61.333 121.333 -92 196 -92c31.333 0 57 6.66699 77 20s30 31 30 53c0 17.333 -8.16699 32.333 -24.5 45s-47.833 28.334 -94.5 47.001c-54 22 -96.167 47.333 -126.5 76s-45.5 66.334 -45.5 113.001
c0 69.333 27 125.166 81 167.499s119.667 63.5 197 63.5c110 0 197.333 -34.667 262 -104l-106 -106c-28 26 -54.833 45 -80.5 57s-54.834 18 -87.501 18c-30.667 0 -55.334 -7.16699 -74.001 -21.5s-28 -30.833 -28 -49.5c0 -18 8 -32.667 24 -44s49 -27.333 99 -48
c54.667 -22 96.334 -47.167 125.001 -75.5s43 -66.166 43 -113.499c0 -70.667 -27.167 -127.167 -81.5 -169.5s-119.833 -63.5 -196.5 -63.5z" />
    <glyph glyph-name="afii10055" unicode="&#x406;" horiz-adv-x="336" 
d="M19 0l188 700h154l-188 -700h-154z" />
    <glyph glyph-name="afii10056" unicode="&#x407;" horiz-adv-x="336" 
d="M19 0l188 700h154l-188 -700h-154zM321 755l37 135h146l-37 -135h-146zM107 755l37 135h146l-37 -135h-146z" />
    <glyph glyph-name="afii10057" unicode="&#x408;" horiz-adv-x="575" 
d="M188 -10c-46 0 -89.167 10.002 -129.5 30.002s-72.833 49 -97.5 87l109 95c36.667 -46 78.667 -69 126 -69c36.667 0 68 13 94 39c11.333 11.333 21.333 26.666 30 45.999s19 51.666 31 96.999l103 385h158l-113 -422c-14.667 -56.667 -29.167 -100.167 -43.5 -130.5
s-33.833 -57.833 -58.5 -82.5c-50 -50 -119.667 -75 -209 -75z" />
    <glyph glyph-name="afii10058" unicode="&#x409;" horiz-adv-x="1110" 
d="M35 -9c-50 0 -86.333 5.66797 -109 17.001l45 118c12 -4 28.333 -6 49 -6c14 0 25.833 1.5 35.5 4.5s22.667 12.333 39 28s31.833 38.167 46.5 67.5s32.334 72.666 53.001 129.999s42 127 64 209l38 141h496l-63 -238h103c77.333 0 138.166 -17.833 182.499 -53.5
s66.5 -82.167 66.5 -139.5c0 -84.667 -30.833 -150.667 -92.5 -198s-142.5 -71 -242.5 -71h-294l150 563h-195l-20 -71c-24.667 -87.333 -49.167 -161.833 -73.5 -223.5s-47 -110.5 -68 -146.5s-43.833 -63.833 -68.5 -83.5s-47.5 -32.5 -68.5 -38.5s-45.5 -9 -73.5 -9z
M642 137.001h116c50 0 90 9.66699 120 29s45 48.333 45 87c0 24 -9.5 43.333 -28.5 58s-45.167 22 -78.5 22h-121z" />
    <glyph glyph-name="afii10059" unicode="&#x40a;" horiz-adv-x="1115" 
d="M12 0l187.999 700h154l-70 -260h280l70 260h154l-70 -260h131c72.667 0 130.334 -17 173.001 -51s64 -78.333 64 -133c0 -80.667 -29.333 -143.5 -88 -188.5s-136 -67.5 -232 -67.5h-320l85 312h-280l-85 -312h-154zM634.999 134l136 -0.000976562
c48.667 0 87.167 9 115.5 27s42.5 45.333 42.5 82c0 22.667 -9 40.834 -27 54.501s-43.667 20.5 -77 20.5h-140z" />
    <glyph glyph-name="afii10060" unicode="&#x40b;" horiz-adv-x="852" 
d="M131 0l151.002 563h-190l36 137h583l-36 -137h-240l-43 -160c69.333 34.667 135.666 52 198.999 52c59.333 0 106.166 -13.333 140.499 -40s51.5 -64.667 51.5 -114c0 -20 -3 -42 -9 -66l-63 -235h-154l48 178c6 22 9 41 9 57c0 52.667 -30.333 79 -91 79
s-116.667 -16 -168 -48l-71 -266h-153z" />
    <glyph glyph-name="afii10061" unicode="&#x40c;" horiz-adv-x="727" 
d="M12 0l188 700h154l-83 -310l346 310h208l-341 -293l165 -407h-169l-118 315l-145 -124l-51 -191h-154zM389 755l161 177l128 -57l-161 -120h-128z" />
    <glyph glyph-name="afii10062" unicode="&#x40e;" horiz-adv-x="709" 
d="M144 -11c-65.333 0 -117.334 14 -156.001 42l91 112c20.667 -15.333 46.334 -23 77.001 -23c40 0 74 19 102 57l4 5l-144 518h164l91 -364l264 364h175l-397 -541c-44.667 -60.667 -88.5 -104.167 -131.5 -130.5s-89.5 -39.5 -139.5 -39.5zM467.999 748
c-44.667 0 -80.832 12.667 -108.499 38s-41.834 60 -42.501 104l90 16c7.33301 -42.667 29.333 -64 66 -64c38.667 0 68 21.333 88 64l86 -16c-13.333 -44.667 -35.5 -79.5 -66.5 -104.5s-68.5 -37.5 -112.5 -37.5z" />
    <glyph glyph-name="afii10145" unicode="&#x40f;" horiz-adv-x="746" 
d="M188 -146l39 146h-215l187 700h154l-151 -564h271l151 564h154l-188 -700h-214l-39 -146h-149z" />
    <glyph glyph-name="afii10017" unicode="&#x410;" horiz-adv-x="765" 
d="M-57 0l489 705h148l111 -705h-158l-22 157h-296l-106 -157h-166zM307 293h186l-32 231z" />
    <glyph glyph-name="afii10018" unicode="&#x411;" horiz-adv-x="700" 
d="M13 0l187.001 700h520l-35 -134h-366l-35 -126h138c73.333 0 131.166 -16.833 173.499 -50.5s63.5 -78.167 63.5 -133.5c0 -82 -30 -145.167 -90 -189.5s-139 -66.5 -237 -66.5h-319zM202.001 136l148 0.000976562c46 0 82.833 9.16699 110.5 27.5
s41.5 45.166 41.5 80.499c0 22 -8.83301 40 -26.5 54s-42.167 21 -73.5 21h-151z" />
    <glyph glyph-name="afii10019" unicode="&#x412;" horiz-adv-x="717" 
d="M12 0l187.999 700h272c78.667 0 137.834 -16.167 177.501 -48.5s59.5 -73.5 59.5 -123.5c0 -45.333 -13.5 -83 -40.5 -113s-63.5 -50 -109.5 -60c65.333 -30.667 98 -78 98 -142s-26.5 -115.5 -79.5 -154.5s-126.833 -58.5 -221.5 -58.5h-344zM197.999 135
l180.999 -0.000976562c38.667 0 69.167 7.83301 91.5 23.5s33.5 37.167 33.5 64.5c0 20.667 -8.16699 36.834 -24.5 48.501s-40.166 17.5 -71.499 17.5h-169zM273.998 416.999l155 0.000976562c84 0 126 28.333 126 85c0 19.333 -8 34.666 -24 45.999s-40.333 17 -73 17
h-145z" />
    <glyph glyph-name="afii10020" unicode="&#x413;" horiz-adv-x="576" 
d="M13 0l187 700h470l-36 -137h-316l-152 -563h-153z" />
    <glyph glyph-name="afii10021" unicode="&#x414;" horiz-adv-x="769" 
d="M-87 -146l74 282.998h61c42.667 52.667 80.167 112.334 112.5 179.001s64.5 158.334 96.5 275.001l29 109h511l-151 -563h84l-95 -283h-130l39 146h-444l-51 -146h-136zM215 136.998h277l115 427h-208l-26 -90c-42 -144 -94.667 -256.333 -158 -337z" />
    <glyph glyph-name="afii10022" unicode="&#x415;" horiz-adv-x="665" 
d="M12 0l188 700h523l-37 -137h-370l-38 -143h325l-37 -135h-325l-40 -148h376l-37 -137h-528z" />
    <glyph glyph-name="afii10024" unicode="&#x416;" horiz-adv-x="1071" 
d="M-75 0l380 419l-165 281h169l176 -322l86 322h154l-84 -314l333 314h195l-335 -302l156 -398h-172l-113 291l-117 -101l-50 -190h-154l53 200l-56 94l-257 -294h-199z" />
    <glyph glyph-name="afii10025" unicode="&#x417;" horiz-adv-x="619" 
d="M258 -12c-128 0 -220.668 43.665 -278.001 130.998l106 88c42.667 -56 100.667 -84 174 -84c40.667 0 73.167 8.83301 97.5 26.5s36.5 39.5 36.5 65.5c0 50 -38.333 75 -115 75h-69l32 126h68c44 0 79.167 7.83301 105.5 23.5s39.5 37.834 39.5 66.501
c0 22.667 -9 40.334 -27 53.001s-41.333 19 -70 19c-55.333 0 -110 -22 -164 -66l-80 98c74 68 161.333 102 262 102c70 0 126.667 -17 170 -51s65 -76.333 65 -127c0 -48 -15.5 -87.5 -46.5 -118.5s-74.167 -53.167 -129.5 -66.5c34 -12 61.5 -30.333 82.5 -55
s31.5 -55 31.5 -91c0 -62.667 -27.667 -114.167 -83 -154.5s-124.666 -60.5 -207.999 -60.5z" />
    <glyph glyph-name="afii10026" unicode="&#x418;" horiz-adv-x="765" 
d="M12 0l188 700h151l-122 -458l424 458h144l-187 -700h-152l121 458l-424 -458h-143z" />
    <glyph glyph-name="afii10027" unicode="&#x419;" horiz-adv-x="765" 
d="M503 748c-44.667 0 -80.832 12.667 -108.499 38s-41.834 60 -42.501 104l90 16c7.33301 -42.667 29.333 -64 66 -64c38.667 0 68 21.333 88 64l86 -16c-13.333 -44.667 -35.5 -79.5 -66.5 -104.5s-68.5 -37.5 -112.5 -37.5zM12.002 0l188 700h151l-122 -458l424 458h144
l-187 -700h-152l121 458l-424 -458h-143z" />
    <glyph glyph-name="afii10028" unicode="&#x41a;" horiz-adv-x="727" 
d="M12 0l188 700h154l-83 -310l346 310h208l-341 -293l165 -407h-169l-118 315l-145 -124l-51 -191h-154z" />
    <glyph glyph-name="afii10029" unicode="&#x41b;" horiz-adv-x="760" 
d="M35 -9c-50 0 -86.334 5.66797 -109.001 17.001l45 118c12 -4 28.333 -6 49 -6c14 0 25.833 1.5 35.5 4.5s22.667 12.333 39 28s31.833 38.167 46.5 67.5s32.334 72.666 53.001 129.999s42 127 64 209l38 141h496l-187 -700h-153l150 563h-195l-20 -71
c-24.667 -87.333 -49.167 -161.833 -73.5 -223.5s-47 -110.5 -68 -146.5s-43.833 -63.833 -68.5 -83.5s-47.5 -32.5 -68.5 -38.5s-45.5 -9 -73.5 -9z" />
    <glyph glyph-name="afii10030" unicode="&#x41c;" horiz-adv-x="868" 
d="M12 0l188 700h160l101 -296l261 296h178l-188 -700h-156l122 457l-274 -299h-4l-112 296l-122 -454h-154z" />
    <glyph glyph-name="afii10031" unicode="&#x41d;" horiz-adv-x="756" 
d="M12 0l188 700h154l-74 -277h280l74 277h154l-188 -700h-154l76 281h-280l-76 -281h-154z" />
    <glyph glyph-name="afii10032" unicode="&#x41e;" horiz-adv-x="832" 
d="M387 -12c-95.333 0 -172.5 29.333 -231.5 88s-88.5 132.667 -88.5 222c0 70 17.333 136.5 52 199.5s84.667 114.5 150 154.5s138.333 60 219 60c95.333 0 172.5 -29.333 231.5 -88s88.5 -132.667 88.5 -222c0 -70 -17.333 -136.5 -52 -199.5s-84.667 -114.5 -150 -154.5
s-138.333 -60 -219 -60zM405 130c70 0 128 27.5 174 82.5s69 114.833 69 179.5c0 53.333 -15.667 96.333 -47 129s-75 49 -131 49c-70 0 -128 -27.5 -174 -82.5s-69 -114.833 -69 -179.5c0 -53.333 15.667 -96.333 47 -129s75 -49 131 -49z" />
    <glyph glyph-name="afii10033" unicode="&#x41f;" horiz-adv-x="746" 
d="M12 0l188 700h578l-188 -700h-155l151 563h-270l-150 -563h-154z" />
    <glyph glyph-name="afii10034" unicode="&#x420;" horiz-adv-x="679" 
d="M12 0l188.001 700.001h222c99.333 0 172.666 -23.667 219.999 -71c36 -36 54 -84 54 -144c0 -84.667 -32 -151.334 -96 -200.001s-145.333 -73 -244 -73h-133l-57 -212h-154zM259.001 347.001l105 0.000976562c52 0 93.5 11.167 124.5 33.5s46.5 52.833 46.5 91.5
c0 23.333 -7.66699 42.666 -23 57.999c-20.667 20.667 -52.667 31 -96 31h-100z" />
    <glyph glyph-name="afii10035" unicode="&#x421;" horiz-adv-x="726" 
d="M397 -12c-96.667 0 -175.834 27.834 -237.501 83.501s-92.5 129.5 -92.5 221.5c0 112.667 41.833 210.667 125.5 294s183.834 125 300.501 125c126 0 219.333 -49.667 280 -149l-127 -89c-22.667 32 -47.167 56 -73.5 72s-59.166 24 -98.499 24
c-64.667 0 -122 -26.833 -172 -80.5s-75 -117.167 -75 -190.5c0 -50 16 -90.667 48 -122s73 -47 123 -47c31.333 0 59.166 5.66699 83.499 17s51.166 28.666 80.499 51.999l100 -104c-77.333 -71.333 -165.666 -107 -264.999 -107z" />
    <glyph glyph-name="afii10036" unicode="&#x422;" horiz-adv-x="620" 
d="M159 0l150 558h-213l38 142h580l-38 -142h-213l-150 -558h-154z" />
    <glyph glyph-name="afii10037" unicode="&#x423;" horiz-adv-x="709" 
d="M144 -11c-65.333 0 -117.334 14 -156.001 42l91 112c20.667 -15.333 46.334 -23 77.001 -23c40 0 74 19 102 57l4 5l-144 518h164l91 -364l264 364h175l-397 -541c-44.667 -60.667 -88.5 -104.167 -131.5 -130.5s-89.5 -39.5 -139.5 -39.5z" />
    <glyph glyph-name="afii10038" unicode="&#x424;" horiz-adv-x="922" 
d="M296 -29l21.001 79.001c-86.667 5.33301 -153.167 32 -199.5 80s-69.5 109 -69.5 183c0 100 36.667 183.167 110 249.5s169.666 99.5 288.999 99.5h35l18 66h155l-18 -66c88 -4.66699 155.5 -30.5 202.5 -77.5s70.5 -107.167 70.5 -180.5
c0 -100.667 -36.5 -184.834 -109.5 -252.501s-169.167 -101.5 -288.5 -101.5h-39l-21 -79h-156zM354.001 186.001l92.001 340h-19c-64.667 0 -117.334 -18.167 -158.001 -54.5s-61 -83.833 -61 -142.5c0 -42 12.667 -75.833 38 -101.5s61.333 -39.5 108 -41.5z
M509.002 186.001l23 -0.000976562c64 0 116.5 18 157.5 54s61.5 83.333 61.5 142c0 42.667 -13 76.834 -39 102.501s-63 39.5 -111 41.5z" />
    <glyph glyph-name="afii10039" unicode="&#x425;" horiz-adv-x="700" 
d="M-51 0l338 363l-150 337h173l88 -225l196 225h197l-329 -354l155 -346h-173l-94 235l-204 -235h-197z" />
    <glyph glyph-name="afii10040" unicode="&#x426;" horiz-adv-x="750" 
d="M486 -146l39 146h-513l188 700h153l-152 -563h272l151 563h154l-152 -563h84l-94 -283h-130z" />
    <glyph glyph-name="afii10041" unicode="&#x427;" horiz-adv-x="713" 
d="M405 0l69.998 264c-65.333 -32.667 -131.666 -49 -198.999 -49c-57.333 0 -100.666 15.5 -129.999 46.5s-44 72.167 -44 123.5c0 24 3.66699 49.667 11 77l65 238h153l-60 -226c-4.66699 -16.667 -7 -32.667 -7 -48c0 -48.667 29 -73 87 -73c52 0 105.333 16 160 48
l81 299h153l-187 -700h-153z" />
    <glyph glyph-name="afii10042" unicode="&#x428;" horiz-adv-x="1098" 
d="M12 0l187 700h154l-152 -563h236l151 563h153l-151 -563h236l151 563h153l-187 -700h-931z" />
    <glyph glyph-name="afii10043" unicode="&#x429;" horiz-adv-x="1103" 
d="M839 -146l40 146h-867l187 700h154l-152 -563h236l151 563h153l-151 -563h236l151 563h154l-151 -563h84l-94 -283h-131z" />
    <glyph glyph-name="afii10044" unicode="&#x42a;" horiz-adv-x="775" 
d="M117 0l151.001 563h-168l36 137h321l-63 -238h103c77.333 0 138.166 -17.833 182.499 -53.5s66.5 -82.167 66.5 -139.5c0 -84.667 -30.833 -150.667 -92.5 -198s-142.5 -71 -242.5 -71h-294zM307.001 137h116c50 0 90 9.66699 120 29s45 48.333 45 87
c0 24 -9.5 43.333 -28.5 58s-45.167 22 -78.5 22h-121z" />
    <glyph glyph-name="afii10045" unicode="&#x42b;" horiz-adv-x="965" 
d="M12 0l187.001 700h153l-63 -238h103c77.333 0 138.166 -17.833 182.499 -53.5s66.5 -82.167 66.5 -139.5c0 -84.667 -30.833 -150.667 -92.5 -198s-142.5 -71 -242.5 -71h-294zM202.001 137h116c50 0 90 9.66699 120 29s45 48.333 45 87c0 24 -9.5 43.333 -28.5 58
s-45.167 22 -78.5 22h-121zM657.001 0l187 700h153l-187 -700h-153z" />
    <glyph glyph-name="afii10046" unicode="&#x42c;" horiz-adv-x="670" 
d="M12 0l187.001 700h153l-63 -238h103c77.333 0 138.166 -17.833 182.499 -53.5s66.5 -82.167 66.5 -139.5c0 -84.667 -30.833 -150.667 -92.5 -198s-142.5 -71 -242.5 -71h-294zM202.001 137h116c50 0 90 9.66699 120 29s45 48.333 45 87c0 24 -9.5 43.333 -28.5 58
s-45.167 22 -78.5 22h-121z" />
    <glyph glyph-name="afii10047" unicode="&#x42d;" horiz-adv-x="726" 
d="M284 -12c-64.667 0 -122.001 13.499 -172.001 40.499s-87 63.833 -111 110.5l124 85c36.667 -64.667 91.334 -97 164.001 -97c54.667 0 102.5 15.333 143.5 46s69.833 69.334 86.5 116.001h-262l29 128h251c-6 48 -23.667 86.333 -53 115s-67.333 43 -114 43
c-68.667 0 -128.667 -26.333 -180 -79l-88 99c76 78 166 117 270 117c94 0 171.833 -28 233.5 -84s92.5 -130.667 92.5 -224c0 -71.333 -17 -138.5 -51 -201.5s-83 -114.5 -147 -154.5s-136 -60 -216 -60z" />
    <glyph glyph-name="afii10048" unicode="&#x42e;" horiz-adv-x="1083" 
d="M659 -13c-88.667 0 -160.333 28.001 -215 84.001s-83.667 127 -87 213h-116l-76 -284h-154l188 700h153l-75 -281h99c27.333 85.333 76.333 155.666 147 210.999s149.667 83 237 83c90 0 162.333 -28.667 217 -86s82 -130 82 -218c0 -114.667 -39 -213.667 -117 -297
s-172.333 -125 -283 -125zM674.001 124.001c62 0 115.167 26.499 159.5 79.499s66.5 116.167 66.5 189.5c0 53.333 -14.5 97 -43.5 131s-67.833 51 -116.5 51c-62 0 -115.167 -26.667 -159.5 -80s-66.5 -116.666 -66.5 -189.999c0 -52.667 14.667 -96 44 -130
s68 -51 116 -51z" />
    <glyph glyph-name="afii10049" unicode="&#x42f;" horiz-adv-x="722" 
d="M-33 0l253 258c-78.667 32 -118 91 -118 177c0 81.333 31 145.833 93 193.5s144 71.5 246 71.5h313l-187 -700h-154l62 231h-105l-212 -231h-191zM378 354h129l56 211h-126c-55.333 0 -98.333 -11 -129 -33s-46 -52.333 -46 -91c0 -28 10.667 -49.5 32 -64.5
s49.333 -22.5 84 -22.5z" />
    <glyph glyph-name="afii10065" unicode="&#x430;" horiz-adv-x="588" 
d="M163 -10c-46 0 -83.498 13.499 -112.498 40.499s-43.5 61.5 -43.5 103.5c0 60 21.667 107.167 65 141.5s98.666 51.5 165.999 51.5c49.333 0 99.666 -8 150.999 -24l2 7c4 16 6 29.333 6 40c0 42 -33.667 63 -101 63c-48 0 -95.667 -9.66699 -143 -29l-24 120
c60.667 25.333 127 38 199 38c71.333 0 125.333 -14.167 162 -42.5s55 -69.166 55 -122.499c0 -23.333 -4 -50.333 -12 -81l-79 -296h-147l16 62c-44.667 -48 -98 -72 -160 -72zM228.002 93.999c30.667 0 58.667 10.5 84 31.5s42.333 46.5 51 76.5l4 14
c-32.667 12.667 -66 19 -100 19c-32 0 -58.167 -7.66699 -78.5 -23s-30.5 -35.666 -30.5 -60.999c0 -16.667 6.33301 -30.334 19 -41.001s29.667 -16 51 -16z" />
    <glyph glyph-name="afii10066" unicode="&#x431;" horiz-adv-x="650" 
d="M299 -13c-80.667 0 -143.167 23.667 -187.5 71s-66.5 110.666 -66.5 189.999c0 46.667 5.16699 92.334 15.5 137.001s26.5 88 48.5 130s52.5 77.833 91.5 107.5s84.5 49.167 136.5 58.5l281 49l14 -120l-295 -56c-85.333 -16.667 -137.333 -61 -156 -133
c18 21.333 44.667 41 80 59s76 27 122 27c66 0 120.333 -19.667 163 -59s64 -92.333 64 -159c0 -82.667 -30.667 -153.667 -92 -213s-134.333 -89 -219 -89zM305 118c41.333 0 77.501 16.167 108.501 48.5s46.5 70.5 46.5 114.5c0 34.667 -10.5 62.667 -31.5 84
s-49.167 32 -84.5 32c-42 0 -78 -16.167 -108 -48.5s-45 -70.833 -45 -115.5c0 -33.333 10.167 -60.833 30.5 -82.5s48.166 -32.5 83.499 -32.5z" />
    <glyph glyph-name="afii10067" unicode="&#x432;" horiz-adv-x="598" 
d="M-3 0l143.001 536.002h249c62 0 108.167 -12.167 138.5 -36.5s45.5 -55.5 45.5 -93.5c0 -34.667 -11.333 -63.834 -34 -87.501s-53.334 -40.167 -92.001 -49.5c26 -8 47 -21.333 63 -40s24 -41.334 24 -68.001c0 -48 -20.333 -86.833 -61 -116.5s-99 -44.5 -175 -44.5
h-301zM178.001 108.002h104c30.667 0 55 6.16699 73 18.5s27 28.833 27 49.5c0 34 -26.333 51 -79 51h-93zM235.001 319.002h88.001c31.333 0 55.666 5.83301 72.999 17.5s26 27.5 26 47.5c0 32 -24.667 48 -74 48h-83z" />
    <glyph glyph-name="afii10068" unicode="&#x433;" horiz-adv-x="464" 
d="M-3 0l143 536h383l-33 -126h-231l-110 -410h-152z" />
    <glyph glyph-name="afii10069" unicode="&#x434;" horiz-adv-x="650" 
d="M-80 -119l64 245h52c66.667 86 118.667 205 156 357l13 53h433l-110 -410h76l-81 -245h-128l33 119h-333l-43 -119h-132zM195 126h182l77 285h-138l-11 -43c-10 -40.667 -26.333 -85.5 -49 -134.5s-43 -84.833 -61 -107.5z" />
    <glyph glyph-name="afii10070" unicode="&#x435;" horiz-adv-x="607" 
d="M289 -12c-77.333 0 -138.001 21.167 -182.001 63.5s-66 100.5 -66 174.5c0 52.667 12.833 103.167 38.5 151.5s63.334 88.5 113.001 120.5s105.167 48 166.5 48c68 0 121.5 -19.5 160.5 -58.5s58.5 -89.167 58.5 -150.5c0 -38 -9 -78.667 -27 -122h-367
c5.33301 -70 46 -105 122 -105c38.667 0 78.334 14.333 119.001 43l70 -94c-56.667 -47.333 -125.334 -71 -206.001 -71zM196.999 310l233.001 0.000976562c3.33301 11.333 5 23 5 35c0 23.333 -7.33301 42.333 -22 57s-36.667 22 -66 22c-34 0 -64.333 -10.333 -91 -31
s-46.334 -48.334 -59.001 -83.001z" />
    <glyph glyph-name="afii10072" unicode="&#x436;" horiz-adv-x="897" 
d="M-68 0l293 329l-120 207h156l125 -236l63 236h151l-63 -236l249 236h174l-250 -227l110 -309h-155l-78 208l-98 -86l-32 -122h-150l34 131l-46 77l-180 -208h-183z" />
    <glyph glyph-name="afii10073" unicode="&#x437;" horiz-adv-x="522" 
d="M208 -12c-96 0 -173.331 26 -231.998 78l76 99c48.667 -38.667 100 -58 154 -58c69.333 0 104 20.667 104 62c0 33.333 -28.333 50 -85 50h-68l25 101h61c28 0 50.167 6.33301 66.5 19s24.5 28.334 24.5 47.001c0 12.667 -6.33301 23 -19 31s-30.667 12 -54 12
c-25.333 0 -52.833 -4.83301 -82.5 -14.5s-54.834 -22.5 -75.501 -38.5l-50 88c71.333 55.333 151.333 83 240 83c61.333 0 109.166 -12.333 143.499 -37s51.5 -56 51.5 -94c0 -62.667 -36.333 -108.667 -109 -138c54.667 -20.667 82 -56.334 82 -107.001
c0 -54 -21.333 -98 -64 -132s-105.667 -51 -189 -51z" />
    <glyph glyph-name="afii10074" unicode="&#x438;" horiz-adv-x="642" 
d="M-3 0l143 536h146l-86 -322l305 322h140l-143 -536h-146l85 322l-304 -322h-140z" />
    <glyph glyph-name="afii10075" unicode="&#x439;" horiz-adv-x="642" 
d="M405 588c-42.667 0 -76.832 12.333 -102.499 37s-38.834 58.667 -39.501 102l84 15c7.33301 -41.333 28.666 -62 63.999 -62c37.333 0 65.333 20.667 84 62l81 -15c-13.333 -44 -34.666 -78.167 -63.999 -102.5s-65 -36.5 -107 -36.5zM-2.99805 0l143 536h146l-86 -322
l305 322h140l-143 -536h-146l85 322l-304 -322h-140z" />
    <glyph glyph-name="afii10076" unicode="&#x43a;" horiz-adv-x="588" 
d="M-2 0l143 536h151l-60 -223l238 223h185l-257 -229l117 -307h-162l-78 203l-94 -81l-32 -122h-151z" />
    <glyph glyph-name="afii10077" unicode="&#x43b;" horiz-adv-x="635" 
d="M18 -7c-33.333 0 -59.667 4.00195 -79 12.002l38 117c14 -2.66699 24.667 -4 32 -4c15.333 0 27.833 2.66699 37.5 8s21.667 18.166 36 38.499s29.5 53.833 45.5 100.5s34.333 108.334 55 185.001l23 86h432l-143 -536h-150l110 411h-142l-15 -52
c-16 -58 -31.5 -107.833 -46.5 -149.5s-30.333 -75.834 -46 -102.501s-30 -47.834 -43 -63.501s-28.333 -27.167 -46 -34.5s-33 -11.833 -46 -13.5s-30.5 -2.5 -52.5 -2.5z" />
    <glyph glyph-name="afii10078" unicode="&#x43c;" horiz-adv-x="737" 
d="M-3 0l143 536h134l95 -218l203 218h168l-143 -536h-151l86 322l-209 -211l-93 209l-85 -320h-148z" />
    <glyph glyph-name="afii10079" unicode="&#x43d;" horiz-adv-x="631" 
d="M-3 0l143 536h152l-54 -202h190l55 202h151l-143 -536h-151l55 208h-191l-55 -208h-152z" />
    <glyph glyph-name="afii10080" unicode="&#x43e;" horiz-adv-x="652" 
d="M300 -12c-78 0 -140.5 23.167 -187.5 69.5s-70.5 105.833 -70.5 178.5c0 81.333 30.5 153.333 91.5 216s133.833 94 218.5 94c78 0 140.5 -23.167 187.5 -69.5s70.5 -105.833 70.5 -178.5c0 -81.333 -30.5 -153.333 -91.5 -216s-133.833 -94 -218.5 -94zM307 118
c44 0 80.667 19 110 57s44 77.667 44 119c0 38.667 -10.5 68.667 -31.5 90s-49.167 32 -84.5 32c-44 0 -80.667 -19 -110 -57s-44 -77.667 -44 -119c0 -38.667 10.5 -68.667 31.5 -90s49.167 -32 84.5 -32z" />
    <glyph glyph-name="afii10081" unicode="&#x43f;" horiz-adv-x="626" 
d="M-3 0l143 536h489l-143 -536h-151l110 410h-187l-110 -410h-151z" />
    <glyph glyph-name="afii10082" unicode="&#x440;" horiz-adv-x="674" 
d="M-46 -160l186 696h152l-16 -58c48.667 45.333 99 68 151 68c60 0 109.333 -20.667 148 -62s58 -97.333 58 -168c0 -92.667 -29.833 -170.167 -89.5 -232.5s-128.5 -93.5 -206.5 -93.5c-73.333 0 -129.333 29.333 -168 88l-63 -238h-152zM317 118
c42 0 79.001 18.168 111.001 54.501s48 80.833 48 133.5c0 34.667 -10.167 62 -30.5 82s-47.5 30 -81.5 30c-42.667 0 -80.334 -18.333 -113.001 -55s-49 -80.334 -49 -131.001c0 -34 10.667 -61.5 32 -82.5s49 -31.5 83 -31.5z" />
    <glyph glyph-name="afii10083" unicode="&#x441;" horiz-adv-x="552" 
d="M292 -12c-73.333 0 -133.331 22.166 -179.998 66.499s-70 102.833 -70 175.5c0 87.333 31.167 161.833 93.5 223.5s136.5 92.5 222.5 92.5c101.333 0 174.666 -39.333 219.999 -118l-116 -82c-15.333 23.333 -31.5 40.833 -48.5 52.5s-39.5 17.5 -67.5 17.5
c-40 0 -75.667 -18.667 -107 -56s-47 -80.666 -47 -129.999c0 -34 10 -61.333 30 -82s45 -31 75 -31c39.333 0 79.666 17.667 120.999 53l78 -99c-30.667 -27.333 -61.667 -48 -93 -62s-68.333 -21 -111 -21z" />
    <glyph glyph-name="afii10084" unicode="&#x442;" horiz-adv-x="513" 
d="M114 0l110 410h-172l33 126h485l-33 -126h-163l-110 -410h-150z" />
    <glyph glyph-name="afii10085" unicode="&#x443;" horiz-adv-x="592" 
d="M85 -163c-48 0 -89.6699 12.334 -125.003 37.001l81 110c18.667 -14 38.334 -21 59.001 -21c22 0 41.667 11 59 33l-66 540h155l25 -364l201 364h164l-332 -549c-35.333 -54.667 -69.666 -93.334 -102.999 -116.001s-72.666 -34 -117.999 -34z" />
    <glyph glyph-name="afii10086" unicode="&#x444;" horiz-adv-x="909" 
d="M271 -160l50 191.001c-40.667 -27.333 -81.334 -41 -122.001 -41c-50 0 -88.667 17.167 -116 51.5s-41 84.166 -41 149.499c0 41.333 6 82.166 18 122.499s29.333 77.833 52 112.5s52.5 62.667 89.5 84s78.5 32 124.5 32c44.667 0 84.334 -16.667 119.001 -50l64 238h150
l-63 -233c43.333 30 84.666 45 123.999 45c49.333 0 87.833 -17.5 115.5 -52.5s41.5 -85.5 41.5 -151.5c0 -40.667 -6 -81.167 -18 -121.5s-29.333 -77.666 -52 -111.999s-52.5 -62 -89.5 -83s-78.167 -31.5 -123.5 -31.5c-47.333 0 -87.666 15 -120.999 45l-52 -195h-150z
M274 114.001c25.333 0 50.999 8.33301 76.999 25l68 255c-20 16.667 -44.333 25 -73 25c-45.333 0 -81.666 -21 -108.999 -63s-41 -91.333 -41 -148c0 -28 6.5 -50.667 19.5 -68s32.5 -26 58.5 -26zM572.999 114.001c45.333 0 81.667 20.167 109 60.5s41 89.5 41 147.5
c0 28 -6.5 51.167 -19.5 69.5s-32.5 27.5 -58.5 27.5s-51.333 -8.33301 -76 -25l-69 -255c18.667 -16.667 43 -25 73 -25z" />
    <glyph glyph-name="afii10087" unicode="&#x445;" horiz-adv-x="578" 
d="M-50 0l262 280l-117 256h162l60 -150l126 150h181l-251 -271l118 -265h-162l-62 159l-136 -159h-181z" />
    <glyph glyph-name="afii10088" unicode="&#x446;" horiz-adv-x="641" 
d="M385 -119l33 119h-421l143 536h152l-110 -410h185l110 410h152l-110 -410h75l-81 -245h-128z" />
    <glyph glyph-name="afii10089" unicode="&#x447;" horiz-adv-x="584" 
d="M303 0l49.001 191.001c-48.667 -21.333 -100 -32 -154 -32c-44.667 0 -79.834 12 -105.501 36s-38.5 56 -38.5 96c0 15.333 2.66699 33 8 53l52 192h151l-43 -164c-4.66699 -18.667 -7 -31.334 -7 -38.001c0 -34 18.333 -51 55 -51c44 0 82.667 10.333 116 31l59 222h151
l-143 -536h-150z" />
    <glyph glyph-name="afii10090" unicode="&#x448;" horiz-adv-x="906" 
d="M-3 0l143 536h151l-110 -410h158l110 410h151l-110 -410h158l110 410h151l-143 -536h-769z" />
    <glyph glyph-name="afii10091" unicode="&#x449;" horiz-adv-x="921" 
d="M665 -119l33 119h-701l143 536h151l-110 -410h158l110 410h151l-110 -410h158l110 410h151l-110 -410h75l-81 -245h-128z" />
    <glyph glyph-name="afii10092" unicode="&#x44a;" horiz-adv-x="642" 
d="M79 0l109.999 410h-139l14.5 57c7.66699 30 13.834 53 18.501 69h290l-49 -184h90c58.667 0 105 -13.667 139 -41s51 -63 51 -107c0 -64 -23.5 -114 -70.5 -150s-108.5 -54 -184.5 -54h-270zM259.999 115h80c34.667 0 62.5 6.83301 83.5 20.5s31.5 33.5 31.5 59.5
c0 16 -6.66699 28.833 -20 38.5s-31 14.5 -53 14.5h-86z" />
    <glyph glyph-name="afii10093" unicode="&#x44b;" horiz-adv-x="819" 
d="M-3 0l143 536h152l-49 -184h80c58.667 0 105 -13.667 139 -41s51 -63 51 -107c0 -64 -23.5 -114 -70.5 -150s-108.5 -54 -184.5 -54h-261zM179 115h70c34.667 0 62.5 6.83301 83.5 20.5s31.5 33.5 31.5 59.5c0 16 -6.66699 28.833 -20 38.5s-31 14.5 -53 14.5h-76zM528 0
l143 536h151l-143 -536h-151z" />
    <glyph glyph-name="afii10094" unicode="&#x44c;" horiz-adv-x="561" 
d="M-3 0l143 536h152l-49 -184h90c58.667 0 105 -13.667 139 -41s51 -63 51 -107c0 -64 -23.5 -114 -70.5 -150s-108.5 -54 -184.5 -54h-271zM179 115h80c34.667 0 62.5 6.83301 83.5 20.5s31.5 33.5 31.5 59.5c0 16 -6.66699 28.833 -20 38.5s-31 14.5 -53 14.5h-86z" />
    <glyph glyph-name="afii10095" unicode="&#x44d;" horiz-adv-x="560" 
d="M211 -12c-57.333 0 -105.334 12.3311 -144.001 36.998s-67.667 56.334 -87 95.001l115 71c26 -52.667 64.667 -79 116 -79c32.667 0 62.334 10.167 89.001 30.5s46.334 46.5 59.001 78.5h-178l24 99h166c-4 32.667 -16.167 57.834 -36.5 75.501s-44.833 26.5 -73.5 26.5
c-46 0 -86.667 -17.667 -122 -53l-85 89c57.333 59.333 130.666 89 219.999 89c68.667 0 126.5 -23.5 173.5 -70.5s70.5 -106.5 70.5 -178.5c0 -87.333 -30 -160.833 -90 -220.5s-132.333 -89.5 -217 -89.5z" />
    <glyph glyph-name="afii10096" unicode="&#x44e;" horiz-adv-x="879" 
d="M538 -12c-71.333 0 -128 19.999 -170 59.999s-66 92.667 -72 158h-92l-55 -206h-152l143 536h151l-55 -207h75c21.333 62.667 57.833 114.667 109.5 156s111.167 62 178.5 62c76 0 134.667 -22.833 176 -68.5s62 -104.167 62 -175.5
c0 -85.333 -28.167 -159.166 -84.5 -221.499s-127.833 -93.5 -214.5 -93.5zM544 117.999c44 0 79.5 17.833 106.5 53.5s40.5 77.5 40.5 125.5c0 37.333 -8.83301 66.666 -26.5 87.999s-43.5 32 -77.5 32c-43.333 0 -78.833 -18.5 -106.5 -55.5s-41.5 -79.167 -41.5 -126.5
c0 -37.333 9 -66.166 27 -86.499s44 -30.5 78 -30.5z" />
    <glyph glyph-name="afii10097" unicode="&#x44f;" horiz-adv-x="601" 
d="M-34 0l181 193c-26.667 10.667 -47.167 28 -61.5 52s-21.5 50.667 -21.5 80c0 64 24 115.167 72 153.5s111.333 57.5 190 57.5h278l-143 -536h-151l44 162h-57l-149 -162h-182zM297 272h87l39 144h-84c-38.667 0 -68.667 -7.5 -90 -22.5s-32 -36.167 -32 -63.5
c0 -38.667 26.667 -58 80 -58z" />
    <glyph glyph-name="afii10071" unicode="&#x451;" horiz-adv-x="607" 
d="M289 -12c-77.333 0 -138.001 21.167 -182.001 63.5s-66 100.5 -66 174.5c0 52.667 12.833 103.167 38.5 151.5s63.334 88.5 113.001 120.5s105.167 48 166.5 48c68 0 121.5 -19.5 160.5 -58.5s58.5 -89.167 58.5 -150.5c0 -38 -9 -78.667 -27 -122h-367
c5.33301 -70 46 -105 122 -105c38.667 0 78.334 14.333 119.001 43l70 -94c-56.667 -47.333 -125.334 -71 -206.001 -71zM196.999 310l233.001 0.000976562c3.33301 11.333 5 23 5 35c0 23.333 -7.33301 42.333 -22 57s-36.667 22 -66 22c-34 0 -64.333 -10.333 -91 -31
s-46.334 -48.334 -59.001 -83.001zM409 595.001l37 135h146l-37 -135h-146zM195 595.001l37 135h146l-37 -135h-146z" />
    <glyph glyph-name="afii10099" unicode="&#x452;" horiz-adv-x="622" 
d="M309 -12c-44.667 0 -78.668 4.66699 -102.001 14l43 123c12.667 -4.66699 30.334 -7 53.001 -7c26.667 0 48.167 11 64.5 33s29.833 53.667 40.5 95c4.66699 16 7 33 7 51c0 26 -6 47.333 -18 64s-30.667 25 -56 25c-29.333 0 -53.833 -9.5 -73.5 -28.5
s-33.834 -45.167 -42.501 -78.5l-76 -279h-152l146 552h-68l28 105h68l20 73h152l-19 -73h175l-28 -105h-175l-24 -94c49.333 44 98 66 146 66c51.333 0 91 -16.167 119 -48.5s42 -72.833 42 -121.5c0 -10 -0.833008 -21 -2.5 -33l-4.5 -31.5
c-1.33301 -9 -4.16602 -21.167 -8.49902 -36.5s-7.33301 -26.166 -9 -32.499s-5.16699 -18.333 -10.5 -36s-8.33301 -27.834 -9 -30.501c-32 -110.667 -107.333 -166 -226 -166z" />
    <glyph glyph-name="afii10100" unicode="&#x453;" horiz-adv-x="464" 
d="M-3 0l143 536h383l-33 -126h-231l-110 -410h-152zM228 595l161 177l128 -57l-161 -120h-128z" />
    <glyph glyph-name="afii10101" unicode="&#x454;" horiz-adv-x="562" 
d="M287 -12c-70 0 -128.334 22 -175.001 66s-70 101.667 -70 173c0 88.667 30.167 164.167 90.5 226.5s132.833 93.5 217.5 93.5c55.333 0 101.666 -12.167 138.999 -36.5s66 -55.833 86 -94.5l-111 -67c-23.333 48.667 -61.666 73 -114.999 73
c-32 0 -61.167 -9.66699 -87.5 -29s-45.833 -44.333 -58.5 -75h183l-24 -99h-175c4 -34.667 16.167 -61 36.5 -79s45.5 -27 75.5 -27c47.333 0 90.333 18.667 129 56l85 -87c-59.333 -62.667 -134.666 -94 -225.999 -94z" />
    <glyph glyph-name="afii10102" unicode="&#x455;" 
d="M217 -12c-43.333 0 -86.832 8.33203 -130.499 24.999s-80.5 40.667 -110.5 72l88 91c48 -48 102.667 -72 164 -72c42.667 0 64 15.667 64 47c0 15.333 -20.667 32 -62 50c-25.333 10.667 -45.5 20 -60.5 28s-30.833 18.333 -47.5 31s-28.834 27 -36.501 43
s-11.5 34.333 -11.5 55c0 54.667 19.5 99.667 58.5 135s91.167 53 156.5 53c40.667 0 80 -7.5 118 -22.5s69 -33.167 93 -54.5l-82 -96c-48 38 -94.667 57 -140 57c-18.667 0 -33.167 -4 -43.5 -12s-15.5 -19 -15.5 -33c0 -10 5.66699 -19 17 -27s29.333 -17.667 54 -29
c22 -10 39.833 -18.667 53.5 -26s28.667 -17.166 45 -29.499s28.5 -26.5 36.5 -42.5s12 -34 12 -54c0 -58 -20.5 -104 -61.5 -138s-93.833 -51 -158.5 -51z" />
    <glyph glyph-name="afii10103" unicode="&#x456;" horiz-adv-x="302" 
d="M159 595l37 135h160l-37 -135h-160zM3 0l144 536h152l-144 -536h-152z" />
    <glyph glyph-name="afii10104" unicode="&#x457;" horiz-adv-x="302" 
d="M262 595l37 135h146l-37 -135h-146zM48 595l37 135h146l-37 -135h-146zM3 0l144 536h152l-144 -536h-152z" />
    <glyph glyph-name="afii10105" unicode="&#x458;" horiz-adv-x="301" 
d="M-46 -163c-30.667 0 -58.333 2.66699 -83 8l32 119c13.333 -3.33301 25.666 -5 36.999 -5c16.667 0 31.334 6.5 44.001 19.5s22 30.833 28 53.5l135 504h152l-140 -523c-32 -117.333 -100.333 -176 -205 -176zM159.001 595l36 135h160l-36 -135h-160z" />
    <glyph glyph-name="afii10106" unicode="&#x459;" horiz-adv-x="907" 
d="M18 -7c-33.333 0 -59.667 4.00195 -79 12.002l38 117c14 -2.66699 24.667 -4 32 -4c15.333 0 27.833 2.66699 37.5 8s21.667 18.166 36 38.499s29.5 53.833 45.5 100.5s34.333 108.334 55 185.001l23 86h432l-49 -184h90c58.667 0 105 -13.667 139 -41s51 -63 51 -107
c0 -64 -23.5 -114 -70.5 -150s-108.5 -54 -184.5 -54h-269l110 411h-142l-15 -52c-16 -58 -31.5 -107.833 -46.5 -149.5s-30.333 -75.834 -46 -102.501s-30 -47.834 -43 -63.501s-28.333 -27.167 -46 -34.5s-33 -11.833 -46 -13.5s-30.5 -2.5 -52.5 -2.5zM524.999 115.002
h80c34.667 0 62.5 6.83301 83.5 20.5s31.5 33.5 31.5 59.5c0 16 -6.66699 28.833 -20 38.5s-31 14.5 -53 14.5h-86z" />
    <glyph glyph-name="afii10107" unicode="&#x45a;" horiz-adv-x="903" 
d="M-3 0l143.001 536.001h152l-51 -194h190l52 194h150l-51 -194h91c59.333 0 106.166 -13 140.499 -39s51.5 -61 51.5 -105c0 -62.667 -23.5 -111.334 -70.5 -146.001s-108.5 -52 -184.5 -52h-270l58 216h-191l-58 -216h-152zM520.001 117.001h79.001c36 0 64.5 6 85.5 18
s31.5 30.333 31.5 55c0 16.667 -7.33301 29.5 -22 38.5s-33.334 13.5 -56.001 13.5h-83z" />
    <glyph glyph-name="afii10108" unicode="&#x45b;" horiz-adv-x="622" 
d="M-3 0l146.001 552h-68l28 105h68l20 73h152l-19 -73h175l-28 -105h-175l-24 -94c49.333 44 98 66 146 66s86.333 -14 115 -42s43 -66 43 -114c0 -22.667 -6 -56.667 -18 -102l-72 -266h-152l74 272c4.66699 17.333 7 33.333 7 48c0 44 -24.667 66 -74 66
c-29.333 0 -53.833 -9.5 -73.5 -28.5s-33.834 -45.167 -42.501 -78.5l-76 -279h-152z" />
    <glyph glyph-name="afii10109" unicode="&#x45c;" horiz-adv-x="588" 
d="M-2 0l143 536h151l-60 -223l238 223h185l-257 -229l117 -307h-162l-78 203l-94 -81l-32 -122h-151zM290 595l161 177l128 -57l-161 -120h-128z" />
    <glyph glyph-name="afii10110" unicode="&#x45e;" horiz-adv-x="592" 
d="M85 -163c-48 0 -89.6699 12.334 -125.003 37.001l81 110c18.667 -14 38.334 -21 59.001 -21c22 0 41.667 11 59 33l-66 540h155l25 -364l201 364h164l-332 -549c-35.333 -54.667 -69.666 -93.334 -102.999 -116.001s-72.666 -34 -117.999 -34zM362.997 588.001
c-42.667 0 -76.832 12.333 -102.499 37s-38.834 58.667 -39.501 102l84 15c7.33301 -41.333 28.666 -62 63.999 -62c37.333 0 65.333 20.667 84 62l81 -15c-13.333 -44 -34.666 -78.167 -63.999 -102.5s-65 -36.5 -107 -36.5z" />
    <glyph glyph-name="afii10193" unicode="&#x45f;" horiz-adv-x="620" 
d="M137 -119l32 119h-172l143 536h152l-109 -410h184l110 410h151l-142 -536h-173l-33 -119h-143z" />
    <glyph glyph-name="afii10050" unicode="&#x490;" horiz-adv-x="576" 
d="M13 0l187 700h326l39 146h130l-56 -282h-321l-152 -564h-153z" />
    <glyph glyph-name="afii10098" unicode="&#x491;" horiz-adv-x="464" 
d="M-3 0l143 536h239l32 116h127l-48 -242h-231l-110 -410h-152z" />
    <glyph glyph-name="endash" unicode="&#x2013;" horiz-adv-x="531" 
d="M44 239l38 142h428l-38 -142h-428z" />
    <glyph glyph-name="emdash" unicode="&#x2014;" horiz-adv-x="901" 
d="M44 239l38 142h798l-38 -142h-798z" />
    <glyph glyph-name="quoteleft" unicode="&#x2018;" horiz-adv-x="319" 
d="M93 384l35.999 135.001c17.333 64.667 44.333 111.667 81 141s85.334 44.666 146.001 45.999l10 -63c-76 -6.66699 -119.333 -39.667 -130 -99h62l-43 -160h-162z" />
    <glyph glyph-name="quoteright" unicode="&#x2019;" horiz-adv-x="319" 
d="M87 378l-9.99902 62.999c76 6.66699 119.333 39.667 130 99h-62l43 160h162l-36 -135c-17.333 -64.667 -44.333 -111.667 -81 -141s-85.334 -44.666 -146.001 -45.999z" />
    <glyph glyph-name="quotesinglbase" unicode="&#x201a;" horiz-adv-x="319" 
d="M-51 -162l-9.99902 62.999c76 6.66699 119.333 39.667 130 99h-62l43 160h162l-36 -135c-17.333 -64.667 -44.333 -111.667 -81 -141s-85.334 -44.666 -146.001 -45.999z" />
    <glyph glyph-name="quotedblleft" unicode="&#x201c;" horiz-adv-x="573" 
d="M348 383l35.999 135.001c17.333 64.667 44.333 111.667 81 141s85.334 44.666 146.001 45.999l10 -63c-76 -6.66699 -119.333 -39.667 -130 -99h62l-43 -160h-162zM93.999 383.001l35.999 135.001c17.333 64.667 44.333 111.667 81 141s85.334 44.666 146.001 45.999
l10 -63c-76 -6.66699 -119.333 -39.667 -130 -99h62l-43 -160h-162z" />
    <glyph glyph-name="quotedblright" unicode="&#x201d;" horiz-adv-x="573" 
d="M342 378l-9.99902 62.999c76 6.66699 119.333 39.667 130 99h-62l43 160h162l-36 -135c-17.333 -64.667 -44.333 -111.667 -81 -141s-85.334 -44.666 -146.001 -45.999zM88.001 377.999l-9.99902 62.999c76 6.66699 119.333 39.667 130 99h-62l43 160h162l-36 -135
c-17.333 -64.667 -44.333 -111.667 -81 -141s-85.334 -44.666 -146.001 -45.999z" />
    <glyph glyph-name="quotedblbase" unicode="&#x201e;" horiz-adv-x="573" 
d="M203 -162l-9.99902 62.999c76 6.66699 119.333 39.667 130 99h-62l43 160h162l-36 -135c-17.333 -64.667 -44.333 -111.667 -81 -141s-85.334 -44.666 -146.001 -45.999zM-50.999 -162.001l-9.99902 62.999c76 6.66699 119.333 39.667 130 99h-62l43 160h162l-36 -135
c-17.333 -64.667 -44.333 -111.667 -81 -141s-85.334 -44.666 -146.001 -45.999z" />
    <glyph glyph-name="dagger" unicode="&#x2020;" horiz-adv-x="412" 
d="M156 238l82 270l-123 -10l23 83l116 -10l22 129h92l-48 -129l122 10l-23 -83l-117 10l-62 -270h-84z" />
    <glyph glyph-name="daggerdbl" unicode="&#x2021;" horiz-adv-x="412" 
d="M88 0l48 129l-122 -10l22 83l116 -10l34 158l51 158l-122 -10l23 83l116 -10l22 129h92l-48 -129l122 10l-23 -83l-116 10l-33 -158l-52 -158l122 10l-22 -83l-116 10l-22 -129h-92z" />
    <glyph glyph-name="bullet" unicode="&#x2022;" 
d="M246 200c-36 0 -64.333 10.5 -85 31.5s-31 49.167 -31 84.5c0 48 16 91.667 48 131s72 59 120 59c36 0 64.333 -10.5 85 -31.5s31 -49.167 31 -84.5c0 -48 -16 -91.667 -48 -131s-72 -59 -120 -59z" />
    <glyph glyph-name="ellipsis" unicode="&#x2026;" horiz-adv-x="872" 
d="M565 0l42 156h158l-42 -156h-158zM286 0l42 156h158l-42 -156h-158zM7 0l42 156h158l-42 -156h-158z" />
    <glyph glyph-name="perthousand" unicode="&#x2030;" horiz-adv-x="1288" 
d="M238 346c-46 0 -83.167 14.167 -111.5 42.5s-42.5 65.5 -42.5 111.5c0 54 18.333 102.167 55 144.5s83 63.5 139 63.5c46 0 83.167 -14.167 111.5 -42.5s42.5 -65.5 42.5 -111.5c0 -54 -18.333 -102.167 -55 -144.5s-83 -63.5 -139 -63.5zM60 0l673 700h130l-673 -700
h-130zM1053 -8c-46 0 -83.167 14.167 -111.5 42.5s-42.5 65.5 -42.5 111.5c0 54 18.333 102.167 55 144.5s83 63.5 139 63.5c46 0 83.167 -14.167 111.5 -42.5s42.5 -65.5 42.5 -111.5c0 -54 -18.333 -102.167 -55 -144.5s-83 -63.5 -139 -63.5zM645 -8
c-46 0 -83.167 14.167 -111.5 42.5s-42.5 65.5 -42.5 111.5c0 54 18.333 102.167 55 144.5s83 63.5 139 63.5c46 0 83.167 -14.167 111.5 -42.5s42.5 -65.5 42.5 -111.5c0 -54 -18.333 -102.167 -55 -144.5s-83 -63.5 -139 -63.5zM244 433c26 0 47.5 12.333 64.5 37
s25.5 51.334 25.5 80.001c0 22 -5.5 39.333 -16.5 52s-26.167 19 -45.5 19c-26 0 -47.5 -12.333 -64.5 -37s-25.5 -51.334 -25.5 -80.001c0 -22 5.5 -39.333 16.5 -52s26.167 -19 45.5 -19zM1059 79c26 0 47.5 12.333 64.5 37s25.5 51.334 25.5 80.001
c0 22 -5.5 39.333 -16.5 52s-26.167 19 -45.5 19c-26 0 -47.5 -12.333 -64.5 -37s-25.5 -51.334 -25.5 -80.001c0 -22 5.5 -39.333 16.5 -52s26.167 -19 45.5 -19zM651 79c26 0 47.5 12.333 64.5 37s25.5 51.334 25.5 80.001c0 22 -5.5 39.333 -16.5 52s-26.167 19 -45.5 19
c-26 0 -47.5 -12.333 -64.5 -37s-25.5 -51.334 -25.5 -80.001c0 -22 5.5 -39.333 16.5 -52s26.167 -19 45.5 -19z" />
    <glyph glyph-name="guilsinglleft" unicode="&#x2039;" horiz-adv-x="373" 
d="M154 31l-108 224l2 8l237 233l87 -80l-176 -171l80 -160z" />
    <glyph glyph-name="guilsinglright" unicode="&#x203a;" horiz-adv-x="373" 
d="M86 31l-87 80l176 171l-80 160l122 54l108 -224l-2 -8z" />
    <glyph glyph-name="fraction" unicode="&#x2044;" horiz-adv-x="520" 
d="M-138 -98l695 856h134l-695 -856h-134z" />
    <glyph glyph-name="Euro" unicode="&#x20ac;" horiz-adv-x="720" 
d="M396 -12c-75.333 0 -137.167 20.499 -185.5 61.499s-77.166 96.833 -86.499 167.5h-100l27 101h75c3.33301 25.333 7.66602 48 12.999 68h-70l27 101h73c30 68 73.333 122.5 130 163.5s122.334 61.5 197.001 61.5c130 0 214.333 -54.333 253 -163l-131 -65
c-14.667 31.333 -31.5 54 -50.5 68s-45.5 21 -79.5 21c-62.667 0 -111.667 -28.667 -147 -86h193l-27 -101h-204c-6.66699 -18 -12.334 -40.667 -17.001 -68h203l-27 -101h-177c6 -29.333 19.333 -51.666 40 -66.999s45.334 -23 74.001 -23c28 0 52.667 5.5 74 16.5
s43.666 28.833 66.999 53.5l104 -90c-66 -79.333 -148.667 -119 -248 -119z" />
    <glyph glyph-name="afii61352" unicode="&#x2116;" horiz-adv-x="1057" 
d="M12 0l187 700h145l152 -423l113 423h155l-187 -700h-134l-160 437l-117 -437h-154zM703 128l25 95h277l-25 -95h-277zM897 278c-40.667 0 -73 12.668 -97 38.001s-36 57.333 -36 96c0 49.333 17.167 92.166 51.5 128.499s75.833 54.5 124.5 54.5c40 0 72 -12.667 96 -38
s36 -57 36 -95c0 -50 -17.167 -93.167 -51.5 -129.5s-75.5 -54.5 -123.5 -54.5zM908 360.001c19.333 0 36.166 8.83496 50.499 26.502s21.5 39.167 21.5 64.5c0 18 -4.66699 32.833 -14 44.5s-22 17.5 -38 17.5c-19.333 0 -36.166 -8.83301 -50.499 -26.5
s-21.5 -38.834 -21.5 -63.501c0 -18.667 4.83301 -33.834 14.5 -45.501s22.167 -17.5 37.5 -17.5z" />
    <glyph glyph-name="published" unicode="&#x2117;" horiz-adv-x="830" 
d="M435 -12c-100.667 0 -186 35.333 -256 106s-105 155.667 -105 255s35.333 184.666 106 255.999s156.334 107 257.001 107s186 -35.333 256 -106s105 -155.667 105 -255s-35.333 -184.666 -106 -255.999s-156.334 -107 -257.001 -107zM435 28
c90.667 0 166.834 31.333 228.501 94s92.5 139 92.5 229c0 89.333 -30.5 165.166 -91.5 227.499s-136.833 93.5 -227.5 93.5s-166.834 -31.333 -228.501 -94s-92.5 -139 -92.5 -229c0 -89.333 30.5 -165.166 91.5 -227.499s136.833 -93.5 227.5 -93.5zM303 164
l-0.000976562 385.001h158c45.333 0 81.333 -12.167 108 -36.5s40 -56.833 40 -97.5c0 -42.667 -14.667 -75.834 -44 -99.501s-66.666 -35.5 -111.999 -35.5h-64v-116h-86zM388.999 355.001h65.999c20.667 0 37 5.5 49 16.5s18 25.167 18 42.5
c0 18.667 -6.16699 33.167 -18.5 43.5s-29.166 15.5 -50.499 15.5h-64v-118z" />
    <glyph glyph-name="trademark" unicode="&#x2122;" horiz-adv-x="700" 
d="M365 392l83 308h70l46 -130l116 130h76l-83 -308h-66l56 208l-121 -135h-6l-49 135l-56 -208h-66zM138 392l66 246h-92l17 62h254l-17 -62h-92l-66 -246h-70z" />
    <glyph glyph-name="partialdiff" unicode="&#x2202;" 
d="M0 0v700h500v-700h-500zM81 49h340l-171 255zM50 95l170 254l-170 256v-510zM451 95v510l-172 -256zM250 395l171 255h-340z" />
    <glyph glyph-name="Delta" unicode="&#x2206;" horiz-adv-x="768" 
d="M-53 0l480 701h143l106 -701h-729zM209 136h289l-42 379z" />
    <glyph glyph-name="product" unicode="&#x220f;" 
d="M0 0v700h500v-700h-500zM81 49h340l-171 255zM50 95l170 254l-170 256v-510zM451 95v510l-172 -256zM250 395l171 255h-340z" />
    <glyph glyph-name="summation" unicode="&#x2211;" 
d="M0 0v700h500v-700h-500zM81 49h340l-171 255zM50 95l170 254l-170 256v-510zM451 95v510l-172 -256zM250 395l171 255h-340z" />
    <glyph glyph-name="minus" unicode="&#x2212;" horiz-adv-x="640" 
d="M88 285l36 135h481l-37 -135h-480z" />
    <glyph glyph-name="radical" unicode="&#x221a;" horiz-adv-x="564" 
d="M657 794l-414 -945h-19l-146 348l-89 -6l-3 96l153 12l90 -230l317 725h111z" />
    <glyph glyph-name="infinity" unicode="&#x221e;" horiz-adv-x="842" 
d="M261 158c-56.667 0 -101.999 18.502 -135.999 55.502s-51 84.167 -51 141.5c0 56.667 16.333 103.167 49 139.5s77 54.5 133 54.5c40.667 0 75.167 -10.333 103.5 -31s58.833 -51 91.5 -91c22.667 27.333 41 48.166 55 62.499s33.5 27.833 58.5 40.5s51.833 19 80.5 19
c56.667 0 101.5 -18 134.5 -54s49.5 -82.667 49.5 -140s-16.333 -104.5 -49 -141.5s-77.334 -55.5 -134.001 -55.5c-66.667 0 -131.667 38 -195 114c-30.667 -36.667 -60.5 -64.834 -89.5 -84.501s-62.5 -29.5 -100.5 -29.5zM259.001 271.002
c41.333 0 83.334 26.999 126.001 80.999c-50 56.667 -92.667 85 -128 85c-22.667 0 -40.834 -8.16699 -54.501 -24.5s-20.5 -36.166 -20.5 -59.499c0 -24 6.83301 -43.667 20.5 -59s32.5 -23 56.5 -23zM645.002 271.001c24 0 42.501 7.66699 55.501 23s19.5 35 19.5 59
s-7 44 -21 60s-33 24 -57 24c-36.667 0 -78.334 -28.333 -125.001 -85c45.333 -54 88 -81 128 -81z" />
    <glyph glyph-name="integral" unicode="&#x222b;" 
d="M0 0v700h500v-700h-500zM81 49h340l-171 255zM50 95l170 254l-170 256v-510zM451 95v510l-172 -256zM250 395l171 255h-340z" />
    <glyph glyph-name="approxequal" unicode="&#x2248;" horiz-adv-x="640" 
d="M664 541c-18 -46 -43.834 -86.333 -77.501 -121s-71.5 -52 -113.5 -52c-27.333 0 -69.666 10.5 -126.999 31.5s-94 31.5 -110 31.5s-31.833 -6.16699 -47.5 -18.5s-28.167 -26.833 -37.5 -43.5l-77 19c18.667 46 45.167 86.5 79.5 121.5s72.166 52.5 113.499 52.5
c27.333 0 68.333 -10.667 123 -32s91.667 -32 111 -32c16.667 0 32.834 6 48.501 18s28.5 26.333 38.5 43zM603.999 315c-18.667 -46 -44.835 -86.334 -78.502 -121.001s-71.5 -52 -113.5 -52c-27.333 0 -69.5 10.667 -126.5 32s-93.5 32 -109.5 32
c-15.333 0 -31.166 -6.16699 -47.499 -18.5s-29.166 -26.833 -38.499 -43.5l-77 18c18.667 46 45.167 86.5 79.5 121.5s71.833 52.5 112.5 52.5c28.667 0 70.167 -10.5 124.5 -31.5s91.166 -31.5 110.499 -31.5c16.667 0 32.834 5.83301 48.501 17.5
s28.5 25.834 38.5 42.501z" />
    <glyph glyph-name="notequal" unicode="&#x2260;" horiz-adv-x="640" 
d="M118 412l37 135h270l108 139l96 -55l-66 -84h73l-37 -135h-138l-95 -122h201l-36 -134h-268l-105 -137l-96 55l62 82h-75l37 134h141l96 122h-205z" />
    <glyph glyph-name="lessequal" unicode="&#x2264;" horiz-adv-x="640" 
d="M534 145l-444 175l37 143l539 175l-38 -148l-384 -103l328 -104zM493 -10h-493l34 126h493z" />
    <glyph glyph-name="greaterequal" unicode="&#x2265;" horiz-adv-x="640" 
d="M591 320l-538 -175l38 151l384 103l-328 103l38 136l444 -175zM503 -10h-493l34 126h493z" />
    <glyph glyph-name="lozenge" unicode="&#x25ca;" horiz-adv-x="640" 
d="M587 356l-188 -391h-117l-93.5 195.5l-93.5 195.5l188 391h116zM456 356l-115 260l-115 -260l115 -261z" />
    <glyph glyph-name="cyrBreve" unicode="&#xf6d1;" 
d="M358 588c-44.667 0 -80.832 12.667 -108.499 38s-41.834 60 -42.501 104l90 16c7.33301 -42.667 29.333 -64 66 -64c38.667 0 68 21.333 88 64l86 -16c-13.333 -44.667 -35.5 -79.5 -66.5 -104.5s-68.5 -37.5 -112.5 -37.5z" />
    <glyph glyph-name="cyrbreve" unicode="&#xf6d4;" 
d="M356 588c-42.667 0 -76.832 12.333 -102.499 37s-38.834 58.667 -39.501 102l84 15c7.33301 -41.333 28.666 -62 63.999 -62c37.333 0 65.333 20.667 84 62l81 -15c-13.333 -44 -34.666 -78.167 -63.999 -102.5s-65 -36.5 -107 -36.5z" />
    <glyph glyph-name="uniF8FF" unicode="&#xf8ff;" 
d="M0 0v700h500v-700h-500zM81 49h340l-171 255zM50 95l170 254l-170 256v-510zM451 95v510l-172 -256zM250 395l171 255h-340z" />
    <glyph glyph-name="ff" unicode="&#xfb00;" horiz-adv-x="822" 
d="M434 0l110 406h-64l35 130h63l7 29c28 114.667 100.333 172 217 172c41.333 0 76 -5 104 -15l-33 -126c-22 8.66699 -44 13 -66 13c-40 0 -65 -19.333 -75 -58l-4 -15h129l-35 -130h-126l-110 -406h-152zM23 0l110 406h-64l35 130h63l7 29
c30 114.667 102.333 172 217 172c41.333 0 76 -5 104 -15l-33 -126c-22 8.66699 -44 13 -66 13c-39.333 0 -64.333 -19.333 -75 -58l-4 -15h129l-35 -130h-126l-110 -406h-152z" />
    <glyph glyph-name=".null" horiz-adv-x="0" 
 />
    <glyph glyph-name="nonmarkingreturn" horiz-adv-x="333" 
 />
    <glyph glyph-name="nbspace" horiz-adv-x="300" 
 />
    <glyph glyph-name="apple" 
d="M0 0v700h500v-700h-500zM81 49h340l-171 255zM50 95l170 254l-170 256v-510zM451 95v510l-172 -256zM250 395l171 255h-340z" />
    </font>
</defs>
</svg>
